<svg width="24" height="21" viewBox="0 0 24 21" fill="none" xmlns="http://www.w3.org/2000/svg">
<g clip-path="url(#clip0_489_5421)">
<path fill-rule="evenodd" clip-rule="evenodd" d="M24 10.5C24 11.3284 23.3284 12 22.5 12L5.12132 12L11.5607 18.4393C12.1464 19.0251 12.1464 19.9749 11.5607 20.5607C10.9749 21.1464 10.0251 21.1464 9.43934 20.5607L0.43934 11.5607C-0.146447 10.9749 -0.146447 10.0251 0.43934 9.43934L9.43934 0.43934C10.0251 -0.146447 10.9749 -0.146447 11.5607 0.43934C12.1464 1.02513 12.1464 1.97487 11.5607 2.56066L5.12132 9L22.5 9C23.3284 9 24 9.67157 24 10.5Z" fill="white"/>
</g>
<defs>
<clipPath id="clip0_489_5421">
<rect width="24" height="21" fill="white"/>
</clipPath>
</defs>
</svg>
