<svg width="25" height="22" viewBox="0 0 25 22" fill="none" xmlns="http://www.w3.org/2000/svg">
<g clip-path="url(#clip0_489_5411)">
<path fill-rule="evenodd" clip-rule="evenodd" d="M0.0936304 10.7135C0.0862453 9.88514 0.751805 9.2076 1.5802 9.20022L18.9582 9.0453L12.4617 2.66362C11.8707 2.08308 11.8622 1.13337 12.4428 0.542382C13.0233 -0.048604 13.973 -0.0570706 14.564 0.523471L23.6439 9.44288C24.2349 10.0234 24.2434 10.9731 23.6628 11.5641L14.7434 20.644C14.1629 21.235 13.2131 21.2434 12.6222 20.6629C12.0312 20.0824 12.0227 19.1327 12.6033 18.5417L18.9849 12.0452L1.60694 12.2001C0.778549 12.2075 0.101015 11.5419 0.0936304 10.7135Z" fill="#1B365E"/>
</g>
<defs>
<clipPath id="clip0_489_5411">
<rect width="24" height="21" fill="white" transform="translate(24.1863 20.9992) rotate(179.489)"/>
</clipPath>
</defs>
</svg>
