<svg width="79" height="71" viewBox="0 0 79 71" fill="none" xmlns="http://www.w3.org/2000/svg">
<g clip-path="url(#clip0_336_5323)">
<rect x="46.5137" y="22" width="2" height="10.8844" rx="1" transform="rotate(24.5006 46.5137 22)" fill="#1B365E"/>
<path d="M15.4055 24.2195C17.8411 22.4098 20.2688 22.3317 22.7063 23.0438C25.188 23.7688 27.6257 25.2948 30.0608 26.6766L30.0686 26.6805C32.4398 27.9735 35.0801 28.6233 37.7639 28.6082V28.6092C38.2023 28.6177 38.6514 28.6134 39.095 28.6102C39.5412 28.6069 39.9839 28.6049 40.4221 28.616C41.3005 28.6383 42.1355 28.7141 42.8948 28.9344L42.9065 28.9383L42.9182 28.9402C43.8131 29.155 44.5124 29.7007 44.8674 30.3563C45.2151 30.9984 45.2444 31.762 44.7844 32.5018L44.7766 32.5154C44.2509 33.4226 43.2889 33.9436 42.0989 34.2332C40.91 34.5226 39.5758 34.5612 38.4133 34.5662H38.4114C35.8289 34.5898 33.2209 34.5598 31.0842 33.7811L31.0706 33.7762L31.0559 33.7723L30.759 33.6766C30.078 33.443 29.485 33.1433 28.8713 32.8924C28.2391 32.6339 27.4937 32.3859 26.8157 32.6834L26.7317 32.7205L26.6663 32.785C26.2019 33.2411 26.1042 33.8354 26.094 34.3436C26.0889 34.5999 26.1057 34.8608 26.1213 35.0955C26.1376 35.3387 26.1529 35.5543 26.1506 35.7547V35.7742L26.1516 35.7947L26.4338 39.6815C26.5212 40.9012 26.612 42.1122 26.6858 43.1287L26.6868 43.1365C26.7424 43.7618 26.7752 44.3448 26.8303 44.8113C26.8863 45.2843 26.9733 45.7309 27.1731 46.1102C27.6138 46.9464 28.4781 47.2482 29.842 47.3445V47.3455C31.3862 47.4767 33.3308 47.577 34.9182 47.6834V47.6844C35.6245 47.7338 36.3965 47.7576 37.0334 47.9363C37.6594 48.1121 37.9695 48.3815 38.0276 48.8172L38.0295 48.8279L38.0305 48.8387C38.3163 50.4581 38.1677 52.2319 38.1711 53.9959C38.1312 54.8492 38.1277 55.5947 37.9309 56.1629C37.8381 56.4308 37.7131 56.6188 37.5491 56.7459C37.3871 56.8713 37.1419 56.9719 36.7454 56.9852L36.7356 56.9861C33.2876 57.1701 28.9751 57.0042 24.9172 57.0584C23.851 57.0483 22.8796 57.0686 21.9651 57.0477C21.17 57.0295 20.4791 56.9805 19.9133 56.8641L19.679 56.8104L19.6321 56.7977L19.426 56.742C15.6046 55.657 13.9761 52.3114 13.6926 48.3406L13.6917 48.327C13.4029 45.3719 13.2232 42.2097 13.0833 39.1453L12.9543 36.1248C12.9535 35.0788 12.8881 33.958 12.8489 32.8621C12.809 31.7477 12.7947 30.6405 12.8918 29.5779C13.0857 27.4591 13.7153 25.577 15.4055 24.2195Z" fill="white" stroke="#1B365E"/>
<path d="M16.445 23.0002C16.8901 22.5002 16.445 19.8335 16 19.0002C16.445 19.5002 22.2305 19.0002 21.3405 19.5002C20.4504 20.5002 22.6756 23.0002 21.7855 22.5002C20.8954 22.0002 17.7802 22.0002 16.445 23.0002Z" fill="#FFCCB3"/>
<path d="M18.6332 5.86053C27.9279 4.93854 28.9196 20.2 19.2047 20.2C10.1823 20.2 9.73518 6.74229 18.6332 5.86053Z" fill="#FFCCB3"/>
<path d="M78.5665 38.4319L78.5396 38.3548C77.8942 36.7254 76.674 36.7221 74.973 36.7355C74.6268 36.7355 74.2469 36.7355 73.82 36.7254H68.139C65.2917 36.7355 62.1823 36.7355 59.0258 36.7321C59.0762 36.6081 59.093 36.4706 59.0561 36.3332L55.2037 21.0348C55.1634 20.8672 55.0558 20.7264 54.9079 20.6392C54.9012 20.6358 54.8944 20.6325 54.8877 20.6291L57.0391 2.19602C57.1635 1.11981 56.387 0.137467 55.3079 0.0134173C54.7835 -0.0469312 54.2692 0.100587 53.8557 0.425799C53.4422 0.754363 53.18 1.22039 53.1195 1.74005L49.9798 28.632C49.9193 29.1517 50.0672 29.668 50.3933 30.0804C50.7227 30.4928 51.19 30.7543 51.711 30.8146C51.7884 30.8247 51.8657 30.828 51.943 30.828C52.3834 30.828 52.8103 30.6805 53.1632 30.4022C53.5767 30.0737 53.8389 29.6076 53.8994 29.088L54.5247 23.7304L57.7787 36.6483C57.7854 36.6751 57.7955 36.702 57.8056 36.7288C56.5483 36.7288 55.2877 36.7254 54.0406 36.7221C46.8872 36.7086 40.1338 36.6952 35.9117 36.7656C34.0225 36.7992 33.3065 37.8352 33.0409 38.6867C32.6611 39.7864 32.5132 40.7017 32.8762 42.1233C33.1922 43.3738 33.9116 43.8532 34.8965 44.1952C35.7537 44.4903 36.7689 44.5506 37.7538 44.6109C39.8447 44.735 41.1457 44.9026 41.6028 46.123C41.8583 46.8237 41.8852 49.2611 41.8953 50.4312C41.8953 50.6827 41.902 50.8973 41.9054 51.0515C41.9087 52.9927 41.9087 55.5206 41.9054 58.0653C41.9054 61.1598 41.9054 64.2812 41.9121 66.3968V66.4336C41.9356 66.6851 41.9356 66.96 41.939 67.2517C41.9524 68.4352 41.9692 69.907 43.3206 70.601C43.7778 70.8089 44.3862 70.9162 45.3543 70.9631C46.2653 71 47.2704 71 48.5478 70.9967C49.0722 70.9967 49.6403 70.9967 50.2689 70.9967H59.6174C60.2897 70.9967 60.9486 70.9967 61.6008 70.9967C62.0109 70.9967 62.4176 70.9967 62.8176 70.9967C63.8328 70.9967 64.8245 70.9967 65.833 70.9799H65.8867C67.6616 70.9363 69.6685 70.8894 69.7962 68.2609C69.9206 66.152 69.9038 63.9728 69.887 61.8639C69.8769 60.6704 69.8702 59.4332 69.887 58.2162V52.9726C69.887 52.5904 69.887 52.1746 69.887 51.7388C69.887 49.8512 69.8836 47.2629 70.1727 46.4683C70.6904 45.1776 72.0821 45.0535 74.1495 45.0133C75.3899 44.9898 76.5597 44.9663 77.3698 44.4366C79.0136 43.3604 79.4137 41.3387 78.5598 38.4286L78.5665 38.4319ZM52.8977 28.974C52.8674 29.2288 52.7397 29.4568 52.538 29.6177C52.3363 29.7786 52.0842 29.849 51.8287 29.8189C51.5732 29.7887 51.3446 29.6613 51.1833 29.4601C51.0219 29.259 50.9513 29.0075 50.9816 28.7527L54.1213 1.86075C54.1515 1.60595 54.2793 1.37796 54.481 1.21703C54.6558 1.07957 54.8642 1.00917 55.0793 1.00917C55.1163 1.00917 55.1533 1.00917 55.1903 1.01587C55.718 1.07622 56.0979 1.55566 56.0374 2.08203L52.8977 28.974ZM76.8219 43.5984C76.2538 43.9706 75.2252 43.9907 74.136 44.0108C72.314 44.0443 70.045 44.0879 69.2382 46.113C68.8819 47.0919 68.8819 49.5629 68.8853 51.7421C68.8853 52.1746 68.8853 52.5904 68.8853 52.9726V58.2128C68.8684 59.4366 68.8785 60.6771 68.8853 61.8773C68.9021 63.9694 68.9189 66.1319 68.7945 68.2139C68.7138 69.84 67.7894 69.9338 65.8666 69.9774H65.8161C64.4211 69.9976 63.0529 69.9942 61.6041 69.9942C61.194 69.9942 60.7772 69.9942 60.3603 69.9942C60.1149 69.9942 59.8662 69.9942 59.6174 69.9942H50.2723C49.647 69.9942 49.0756 69.9942 48.5478 69.9942C47.2872 69.9942 46.2888 69.9976 45.4014 69.9607C44.5812 69.9238 44.0702 69.84 43.7643 69.6992C43.0281 69.3203 42.9643 68.4821 42.9508 67.2416C42.9508 66.9533 42.9441 66.6549 42.9239 66.3733C42.9138 64.2611 42.9172 61.1498 42.9172 58.0653C42.9172 55.5206 42.9172 52.9927 42.9172 51.0381C42.9138 50.8771 42.9105 50.6659 42.9071 50.4178C42.8869 48.5068 42.8433 46.5723 42.5508 45.771C41.8281 43.8465 39.6968 43.7158 37.8144 43.6051C36.9 43.5515 35.9521 43.4945 35.226 43.243C34.362 42.9447 34.0427 42.6262 33.8544 41.8752C33.5485 40.6849 33.6628 39.9775 33.999 38.9985C34.2511 38.1905 34.8831 37.7882 35.9285 37.7681C40.1406 37.6977 46.8939 37.7111 54.0406 37.7245C58.8375 37.7346 63.7959 37.7446 68.139 37.7245H73.8066C74.2335 37.7346 74.6234 37.7346 74.9764 37.7346C76.7143 37.7279 77.2253 37.7681 77.5951 38.7069L77.6018 38.7236C78.3212 41.1845 78.0657 42.777 76.8185 43.5917L76.8219 43.5984Z" fill="#1B365E"/>
<path fill-rule="evenodd" clip-rule="evenodd" d="M56.7105 49.0002H65C65 59.0002 50.8305 49.0002 50.8305 59.0002H47C47 49.0002 56.7105 59.0002 56.7105 49.0002Z" fill="url(#paint0_linear_336_5323)"/>
<path d="M35.7369 62.1523L35.7133 62.1321C34.325 60.9453 31.7937 60.6368 29.8743 60.7408C11.2042 62.3031 10.2798 55.3161 8.03088 38.4386L7.81911 36.8528C7.50648 35.2067 6.54844 30.191 3.12973 30.4224L3.07258 30.4291C0.527883 30.8884 -0.0536668 34.3282 0.00347966 36.3164C0.864039 46.3342 2.1616 61.4683 12.8379 66.5577C15.2851 67.8284 20.8754 68.7101 26.0354 68.7101C29.9348 68.7101 33.5855 68.2072 35.441 66.9835C36.3285 66.4504 36.8663 65.5888 36.9168 64.6232C36.9672 63.6677 36.5369 62.7691 35.7335 62.1523H35.7369ZM34.9065 66.1353C33.1753 67.2752 29.1919 67.8485 24.2538 67.6708C19.6955 67.5065 15.2986 66.7019 13.2884 65.6592C3.11964 60.8112 1.84898 46.0191 1.00859 36.2594C0.958162 34.4959 1.5061 31.7634 3.22049 31.4282C4.90799 31.3309 6.08454 33.1716 6.81736 37.0171L7.02578 38.5761C9.09986 54.1293 10.1386 61.9645 25.2185 61.9645C26.6573 61.9645 28.2305 61.8941 29.9382 61.7499C31.5719 61.6594 33.888 61.9075 35.0612 62.9066L35.115 62.9502C35.6562 63.3626 35.9453 63.9526 35.9117 64.5729C35.878 65.1999 35.515 65.7665 34.9032 66.1386L34.9065 66.1353Z" fill="#1B365E"/>
<circle cx="46.5" cy="44.5002" r="0.5" fill="#1B365E"/>
<circle cx="62.0002" cy="64.0001" r="1" fill="#1B365E"/>
<g clip-path="url(#clip1_336_5323)">
<path d="M42.9531 19.9796L42.909 19.96L39.7927 18.5589C39.248 18.3139 38.8348 17.8553 38.6526 17.2937L38.6384 17.2497C38.332 16.3052 38.7569 15.2725 39.6493 14.787C40.1577 14.51 40.7506 14.4518 41.2904 14.6114C41.4411 14.6569 41.5897 14.7193 41.7304 14.7989C41.767 14.7163 41.8095 14.6376 41.8583 14.5599C41.895 14.5008 41.934 14.4439 41.9779 14.3884C42.3198 13.9428 42.834 13.6419 43.4077 13.5664C44.4166 13.4352 45.3658 14.0237 45.6717 14.9667L45.686 15.0108C45.8682 15.5723 45.8029 16.1862 45.5061 16.7056L43.8066 19.6673L43.7823 19.7091C43.7031 19.8468 43.5732 19.9539 43.4187 20.004C43.2643 20.0541 43.0985 20.0459 42.9513 19.9787L42.9531 19.9796ZM41.7291 15.5866C41.7291 15.5866 41.7165 15.5804 41.7106 15.5764L41.379 15.3876L41.3776 15.3881C40.9476 15.1428 40.4163 15.1397 39.977 15.378C39.3758 15.7042 39.0908 16.3997 39.2968 17.0346L39.311 17.0786C39.4348 17.4601 39.7178 17.7738 40.0892 17.9408L43.2037 19.341L44.9033 16.3792C45.1059 16.026 45.1514 15.6073 45.0272 15.2245L45.0129 15.1804C44.8074 14.5468 44.168 14.1498 43.4912 14.2381C42.9956 14.303 42.5659 14.6178 42.3627 15.0671L42.3613 15.0675C42.3613 15.0675 42.3618 15.0689 42.3608 15.0706L42.2031 15.4181C42.2031 15.4181 42.1966 15.4306 42.1942 15.4372C42.1522 15.5172 42.0783 15.578 41.9921 15.606C41.906 15.6339 41.8105 15.628 41.7295 15.588L41.7291 15.5866Z" fill="#40BFDE"/>
</g>
<g clip-path="url(#clip2_336_5323)">
<path d="M39.4058 0.793496C38.8405 0.628228 38.2676 1.015 38.1275 1.65936L38.054 1.99709C38.0066 2.21632 37.915 2.4207 37.7862 2.59089L37.0635 3.55757C36.9385 3.72618 36.9565 3.9802 37.1039 4.12434C37.2512 4.26848 37.4748 4.2499 37.5998 4.08277L38.3225 3.11609C38.5205 2.85108 38.6629 2.53626 38.7363 2.19706L38.8097 1.85933C38.856 1.64455 39.0465 1.51515 39.2362 1.56971C39.4259 1.62427 39.5394 1.84301 39.4932 2.05926L39.4198 2.39699C39.3463 2.73178 39.2246 3.05038 39.0582 3.33797C38.986 3.4623 38.9818 3.62282 39.0464 3.75476C39.1109 3.8867 39.2331 3.96686 39.3644 3.96287L41.3202 3.90337C41.4489 3.89945 41.558 4.01679 41.5625 4.16381C41.5659 4.27701 41.5059 4.37889 41.4183 4.41982C41.3117 4.47015 41.2324 4.57556 41.2081 4.7058C41.1837 4.83603 41.2174 4.97038 41.2963 5.06657C41.3338 5.11252 41.3588 5.17356 41.3609 5.24265C41.3649 5.37349 41.2859 5.48479 41.1785 5.5116C41.0596 5.5417 40.9609 5.64035 40.9225 5.77396C40.884 5.90756 40.9078 6.05398 40.9871 6.16193C41.0193 6.20657 41.0403 6.26185 41.0423 6.32653C41.0457 6.43826 40.9869 6.53864 40.9006 6.58099C40.7344 6.6611 40.6506 6.87113 40.7043 7.06961C40.7114 7.09147 40.7147 7.11638 40.7155 7.14138C40.72 7.28839 40.6181 7.41215 40.4895 7.41606L39.0612 7.45951C38.8772 7.46511 38.6926 7.40892 38.5359 7.29597L37.6117 6.63543C37.4471 6.51683 37.2299 6.57347 37.1275 6.762C37.025 6.95052 37.0763 7.19764 37.2422 7.3162L38.1664 7.97674C38.4416 8.17438 38.7614 8.27354 39.0857 8.26367L40.5139 8.22022C41.0222 8.20476 41.4212 7.73058 41.4191 7.15382C41.6267 6.95179 41.7552 6.64623 41.7449 6.30663C41.7426 6.23165 41.7327 6.15985 41.719 6.08964C41.9382 5.88726 42.0742 5.57264 42.0636 5.22569C42.0603 5.1169 42.0429 5.01148 42.0129 4.91381C42.1768 4.71164 42.2741 4.44087 42.2651 4.1439C42.2471 3.55291 41.8144 3.08637 41.2958 3.10215L39.9448 3.14325C40.0077 2.9677 40.0614 2.78507 40.1008 2.59994L40.1743 2.26221C40.3144 1.61785 39.9711 0.960234 39.4058 0.794966L39.4058 0.793496ZM35.2126 3.55355C34.954 3.56142 34.7516 3.80743 34.7605 4.10292L34.8745 7.85027C34.8835 8.14577 35.1006 8.37902 35.3592 8.37115L36.2959 8.34266C36.5545 8.33479 36.757 8.08878 36.748 7.79328L36.634 4.04593C36.625 3.75043 36.408 3.51718 36.1494 3.52505L35.2126 3.55355Z" fill="#40BFDE"/>
</g>
<path d="M15.0654 14.7565C15.0654 14.7565 16.0651 13.116 16.6148 12.2716C17.1645 11.4272 17.1645 10.1885 17.1645 10.1885C17.1645 10.1885 22.2628 10.0843 23.963 11.5264C25.6633 12.9685 27.1491 9.33905 25.5 7.50018C25.5 7.50018 24.5128 6.60492 24.6636 6.9025L24.8145 7.20008C24.8145 7.20008 24.4494 5.1462 22 4.50018C22 4.50018 20.1534 3.87333 20.5344 4.2701C20.9153 4.66687 19.2484 3.17393 16.6174 3.52235C16.6174 3.52235 14.168 3.47148 14.4671 4.36675L14 4.50017C14 4.50017 13 4.50017 12.0663 5.80885C12.0663 5.80885 11.6649 6.6034 12.0663 7.00017C12.4652 7.39694 11.7671 7.7469 11.7671 7.7469C11.7671 7.7469 9.61688 13.6145 12.5163 16.0002C12.5163 16.0002 12.5419 13.1414 13.6899 13.8383C14.8379 14.5352 15.0654 14.759 15.0654 14.759V14.7565Z" fill="#FC7F16"/>
</g>
<defs>
<linearGradient id="paint0_linear_336_5323" x1="56" y1="49.0002" x2="56" y2="59.0002" gradientUnits="userSpaceOnUse">
<stop stop-color="#FFBC41"/>
<stop offset="1" stop-color="#FF5758"/>
</linearGradient>
<clipPath id="clip0_336_5323">
<rect width="79" height="71" fill="white"/>
</clipPath>
<clipPath id="clip1_336_5323">
<rect width="7.39603" height="6.16336" fill="white" transform="translate(38 15.282) rotate(-17.9717)"/>
</clipPath>
<clipPath id="clip2_336_5323">
<rect width="7.50111" height="7.50111" fill="white" transform="translate(34.6628 0.89093) rotate(-1.74249)"/>
</clipPath>
</defs>
</svg>
