<svg width="67" height="82" viewBox="0 0 67 82" fill="none" xmlns="http://www.w3.org/2000/svg">
<path d="M19.8992 1.73571L23.7707 2.40958C30.9915 3.65057 43.1386 5.80056 50.2639 7.021C50.4624 7.05816 50.646 7.09451 50.8214 7.1329C50.7583 7.1195 50.6947 7.1059 50.6307 7.09476L18.234 1.45578C18.1694 1.44453 18.1043 1.43569 18.0398 1.42693C18.5721 1.4873 19.1618 1.6042 19.8992 1.73571ZM51.8609 7.47046C51.8576 7.46897 51.854 7.46817 51.8506 7.46669L51.8818 7.40173L51.8609 7.47046ZM50.9824 7.16986C51.2556 7.23586 51.5113 7.31484 51.7732 7.43338C51.5203 7.32557 51.2563 7.23724 50.9824 7.16986Z" fill="#1B365E" stroke="#1B365E"/>
<path d="M24.1541 35.7972C22.5596 35.027 20.6401 35.6902 19.8699 37.2845L19.4661 38.1201C19.2048 38.6627 18.8197 39.14 18.3427 39.506L15.6594 41.5898C15.1947 41.9539 15.1094 42.6265 15.4697 43.0905C15.83 43.5545 16.5065 43.6405 16.9705 43.2802L19.6539 41.1964C20.3891 40.6251 20.9858 39.8905 21.3903 39.051L21.794 38.2154C22.0495 37.6837 22.6882 37.4612 23.2238 37.7173C23.7594 37.9734 23.9781 38.6115 23.722 39.147L23.3183 39.9826C22.9159 40.8106 22.3788 41.5674 21.7254 42.2165C21.4421 42.497 21.342 42.9127 21.4622 43.2952C21.5823 43.6776 21.9028 43.9599 22.2962 44.0284L28.1585 45.0488C28.5442 45.1159 28.8054 45.4872 28.7383 45.8728C28.6866 46.1698 28.452 46.3991 28.1684 46.4531C27.8229 46.5201 27.5291 46.7471 27.3852 47.0717C27.2413 47.3963 27.2682 47.7665 27.4508 48.0645C27.5373 48.2067 27.5786 48.3808 27.547 48.562C27.4873 48.9053 27.1908 49.1477 26.856 49.153C26.4853 49.16 26.1369 49.3576 25.9493 49.6825C25.7616 50.0075 25.7523 50.4032 25.9295 50.732C26.0013 50.8677 26.0336 51.0243 26.0041 51.194C25.9531 51.4871 25.723 51.7132 25.4426 51.7717C24.9031 51.8805 24.5385 52.3772 24.5899 52.9266C24.5991 52.9878 24.5954 53.0547 24.584 53.1202C24.5169 53.5059 24.1456 53.7671 23.7599 53.6999L19.4788 52.9548C18.9273 52.8588 18.4078 52.6015 18.0025 52.2131L15.6092 49.937C15.1835 49.5291 14.505 49.5461 14.0965 49.9756C13.6879 50.4051 13.7056 51.0797 14.1352 51.4882L16.5285 53.7643C17.2406 54.4446 18.1397 54.8951 19.1116 55.0643L23.3927 55.8094C24.9161 56.0746 26.3649 55.0791 26.6744 53.5755C27.4039 53.174 27.9542 52.4552 28.1092 51.5644C28.1435 51.3677 28.1532 51.1747 28.1507 50.9836C28.9149 50.5881 29.4924 49.8503 29.6508 48.9401C29.7005 48.6548 29.7064 48.3697 29.6704 48.0972C30.2694 47.6691 30.7078 47.0222 30.8434 46.2432C31.1133 44.6929 30.0787 43.2175 28.5244 42.947L24.4747 42.2421C24.7583 41.8226 25.0183 41.3792 25.2372 40.9206L25.6409 40.085C26.4112 38.4906 25.7479 36.5713 24.1534 35.8011L24.1541 35.7972ZM10.1485 40.4677C9.37331 40.3327 8.63523 40.8519 8.50031 41.6271L6.78927 51.4572C6.65435 52.2324 7.17359 52.9704 7.94881 53.1054L10.7566 53.5941C11.5318 53.729 12.2699 53.2098 12.4048 52.4347L14.1158 42.6045C14.2508 41.8294 13.7315 41.0913 12.9563 40.9564L10.1485 40.4677Z" fill="#1B365E"/>
<path d="M53.2293 59.175L53.2071 59.3023C52.9245 60.9259 51.9797 62.3587 50.5999 63.2549L42.7098 68.3819L42.5941 68.4531C42.2268 68.6912 41.7769 68.7877 41.3449 68.7125C40.913 68.6373 40.5214 68.3983 40.253 68.0456L40.172 67.9402L34.4783 60.4488C33.4824 59.139 33.0773 57.4713 33.3599 55.8477L33.3821 55.7204C33.8573 52.99 36.2009 50.9861 38.9745 50.9405C40.5529 50.9132 42.0538 51.536 43.1472 52.6283C43.4506 52.9394 43.7249 53.2812 43.9642 53.6645C44.1591 53.5037 44.3622 53.3643 44.5787 53.239C44.7428 53.1405 44.9095 53.0503 45.0833 52.9653C46.1572 52.4569 47.3658 52.2938 48.5421 52.4985C48.8931 52.5596 49.2419 52.6561 49.5815 52.7827C52.1765 53.7629 53.7045 56.4446 53.2293 59.175Z" fill="#40BFDE"/>
<path d="M37.5402 7.38163L30.4552 6.14842C29.9313 6.05721 29.4325 6.40802 29.3413 6.93197L29.3407 6.93583C29.2495 7.45978 29.6003 7.95846 30.1243 8.04967L37.2093 9.28288C37.7333 9.37409 38.232 9.02328 38.3232 8.49933L38.3239 8.49547C38.4151 7.97152 38.0642 7.47284 37.5402 7.38163Z" fill="#1B365E"/>
<path d="M26.4775 72.4443C26.768 70.7755 25.6506 69.1873 23.9817 68.8968C22.3128 68.6063 20.7244 69.7236 20.4339 71.3923C20.1434 73.0611 21.2609 74.6494 22.9298 74.9399C24.5987 75.2304 26.1871 74.1131 26.4775 72.4443Z" fill="#1B365E"/>
<path d="M40.8759 32.5293L52.8243 34.609C55.3804 35.0539 57.8132 33.3427 58.258 30.7868L58.8044 27.6477C59.2493 25.0918 57.5378 22.6592 54.9818 22.2143L43.0333 20.1345C40.4773 19.6896 38.0445 21.4009 37.5996 23.9567L37.0532 27.0959C36.6084 29.6518 38.3198 32.0844 40.8759 32.5293Z" fill="white"/>
<path d="M34.4313 28.507C34.4436 28.4138 34.4475 28.3231 34.4636 28.2305L35.5275 22.118C35.9705 19.5727 38.4157 17.8527 40.9612 18.2958L56.9747 21.0831C59.5202 21.5262 61.2404 23.9712 60.7974 26.5165L59.7335 32.629C59.2904 35.1743 56.8453 36.8943 54.2998 36.4512L39.424 33.8619L32.7388 38.0941L34.4082 28.503L34.4275 28.5064L34.4313 28.507ZM41.2563 30.0923C41.3102 30.1255 41.3647 30.1549 41.4244 30.1772C41.4841 30.1995 41.5483 30.2186 41.6138 30.23L53.219 32.25C53.7435 32.3413 54.25 31.9885 54.342 31.4601C54.4339 30.9318 54.0803 30.4292 53.552 30.3372L41.9468 28.3172C41.8812 28.3058 41.8143 28.3021 41.7506 28.3029C41.6869 28.3038 41.6218 28.3123 41.5638 28.3261C41.195 28.4129 40.8968 28.7106 40.8284 29.104C40.7599 29.4973 40.9438 29.879 41.2577 30.0846L41.2563 30.0923ZM42.5281 24.9775L54.1333 26.9975C54.6578 27.0888 55.1643 26.7359 55.2562 26.2076C55.3482 25.6793 54.9946 25.1767 54.4662 25.0847L42.8611 23.0647C42.3365 22.9734 41.83 23.3263 41.7381 23.8546C41.6461 24.383 41.9997 24.8855 42.5281 24.9775Z" fill="#40BFDE"/>
<rect x="15.4436" y="18.429" width="12.6743" height="4.47074" rx="1" transform="rotate(10.721 15.4436 18.429)" fill="#B6C93E"/>
<circle cx="62.6119" cy="39.8209" r="2" fill="#1B365E"/>
<circle cx="53.1119" cy="49.3209" r="0.5" fill="#1B365E"/>
<circle cx="65.6119" cy="57.8209" r="1" fill="#1B365E"/>
<circle cx="1.61194" cy="17.8209" r="1" fill="#1B365E"/>
</svg>
