<svg width="69" height="89" viewBox="0 0 69 89" fill="none" xmlns="http://www.w3.org/2000/svg">
<path d="M40.3548 54.9694C40.2258 51.6379 40.3871 48.7772 40.8387 46.3872C41.2903 43.9972 42.0968 41.8607 43.2581 39.9777C44.4839 38.0947 46.0968 36.3203 48.0968 34.6546L52.6452 31.0696C55.1613 29.0418 56.9355 27.195 57.9677 25.5293C59 23.7911 59.5161 21.8719 59.5161 19.7716C59.5161 17.7437 58.9355 15.9694 57.7742 14.4485C56.6774 12.9276 55.1935 11.6964 53.3226 10.7549C51.4516 9.81337 49.3226 9.34262 46.9355 9.34262C43.9032 9.34262 41.0645 10.1755 38.4194 11.8412C35.7742 13.507 33.5484 15.8607 31.7419 18.9025L24 14.4485C25.6774 11.4067 27.7097 8.79944 30.0968 6.62674C32.5484 4.45404 35.2258 2.82451 38.129 1.73816C41.0323 0.579385 44.129 0 47.4194 0C51.5484 0 55.2258 0.869079 58.4516 2.60724C61.6774 4.27298 64.2258 6.55432 66.0968 9.45125C68.0323 12.3482 69 15.6797 69 19.4457C69 21.9081 68.6452 24.1532 67.9355 26.1811C67.2258 28.2089 66.0323 30.2006 64.3548 32.156C62.6774 34.039 60.3548 36.1393 57.3871 38.4568L54.3871 40.8468C52.129 42.5125 50.5484 44.468 49.6452 46.7131C48.7419 48.8858 48.3871 51.6379 48.5806 54.9694H40.3548ZM44.5161 78C42.8387 78 41.3871 77.3482 40.1613 76.0446C39 74.6685 38.4194 73.039 38.4194 71.156C38.4194 69.273 39 67.6797 40.1613 66.3761C41.3871 65 42.8387 64.312 44.5161 64.312C46.1935 64.312 47.6129 65 48.7742 66.3761C50 67.6797 50.6129 69.273 50.6129 71.156C50.6129 73.039 50 74.6685 48.7742 76.0446C47.6129 77.3482 46.1935 78 44.5161 78Z" fill="#B6C93E"/>
<circle cx="28" cy="75" r="1" fill="#1B365E"/>
<circle cx="46.5" cy="87.5" r="1.5" fill="#1B365E"/>
<g clip-path="url(#clip0_924_12350)">
<path d="M13.4336 66.0831C13.4336 65.0234 12.5497 64.1665 11.4564 64.1665C10.3631 64.1665 9.47913 65.0234 9.47913 66.0831C9.47913 67.1429 10.3631 67.9998 11.4564 67.9998C12.538 68.0111 13.422 67.1655 13.4336 66.117C13.4336 66.1057 13.4336 66.0944 13.4336 66.0831Z" fill="#1B515E"/>
<path d="M22.971 45.2822C23.1978 48.3658 22.1045 51.4042 19.947 53.6816C17.7371 55.9985 16.5101 59.0369 16.5159 62.1937V64.1667C16.5043 65.2491 15.5971 66.1285 14.4805 66.1398H8.54876C7.4322 66.1285 6.525 65.2491 6.51336 64.1667V62.1937C6.525 59.0538 5.29794 56.0267 3.08227 53.738C1.09339 51.6748 -0.0115399 48.952 9.08989e-05 46.1278C0.0117217 39.972 5.17 34.9887 11.5263 35C17.522 35.0113 22.5058 39.4872 22.971 45.2822Z" fill="#FFBC42"/>
<path fill-rule="evenodd" clip-rule="evenodd" d="M5.93176 62.1939C5.93176 61.9137 6.16609 61.6865 6.45515 61.6865H16.4577C16.7467 61.6865 16.9811 61.9137 16.9811 62.1939C16.9811 62.4741 16.7467 62.7012 16.4577 62.7012H6.45515C6.16609 62.7012 5.93176 62.4741 5.93176 62.1939Z" fill="white"/>
<path fill-rule="evenodd" clip-rule="evenodd" d="M8.56461 44.4761C9.86405 44.4697 10.9255 45.4836 10.933 46.745L10.933 46.7479H10.933V62.1937C10.933 62.4739 10.6987 62.7011 10.4096 62.7011C10.1205 62.7011 9.88622 62.4739 9.88622 62.1937V46.7495C9.88133 46.0502 9.29232 45.4868 8.56912 45.4908L8.56612 45.4908C8.31561 45.4908 8.06958 45.5645 7.85698 45.7001C7.27367 46.1074 7.13746 46.9018 7.55513 47.4727C7.61107 47.5476 7.66667 47.6082 7.73187 47.664L7.73925 47.6704L8.4371 48.2905C8.65018 48.4799 8.66458 48.8008 8.46925 49.0073C8.27393 49.2139 7.94285 49.2279 7.72977 49.0385L7.03533 48.4215C6.90507 48.3095 6.79934 48.1913 6.70541 48.0653L6.70319 48.0623L6.7032 48.0623C5.94901 47.0344 6.19435 45.6012 7.25669 44.8688C7.26099 44.8658 7.26533 44.8629 7.26973 44.8601C7.64839 44.6154 8.09715 44.4764 8.56461 44.4761Z" fill="white"/>
<path fill-rule="evenodd" clip-rule="evenodd" d="M13.0266 46.7495V62.1937C13.0266 62.4739 12.7922 62.7011 12.5032 62.7011C12.2141 62.7011 11.9798 62.4739 11.9798 62.1937V46.745C11.9873 45.4836 13.0487 44.4697 14.3482 44.4761C14.8156 44.4764 15.2644 44.6154 15.6431 44.8601C15.6475 44.8629 15.6518 44.8658 15.6561 44.8688C16.7184 45.6012 16.9638 47.0344 16.2096 48.0623L16.2074 48.0653C16.1135 48.1913 16.0077 48.3095 15.8775 48.4215L15.183 49.0385C14.9699 49.2279 14.6389 49.2139 14.4435 49.0073C14.2482 48.8008 14.2626 48.4799 14.4757 48.2905L15.1735 47.6704L15.1809 47.664C15.2461 47.6082 15.3017 47.5476 15.3577 47.4727C15.7753 46.9018 15.6391 46.1074 15.0558 45.7001C14.8432 45.5645 14.5972 45.4908 14.3467 45.4908H14.3437C13.6205 45.4868 13.0315 46.0502 13.0266 46.7495Z" fill="white"/>
</g>
<defs>
<clipPath id="clip0_924_12350">
<rect width="23" height="33" fill="white" transform="translate(0 35)"/>
</clipPath>
</defs>
</svg>
