<svg width="75" height="72" viewBox="0 0 75 72" fill="none" xmlns="http://www.w3.org/2000/svg">
<g clip-path="url(#clip0_1068_15794)">
<path d="M67.348 43.9636C76.698 48.9567 77.6561 62.3284 69.238 68.8373C64.0035 72.8868 56.4782 73.1576 51.2131 69.0251C49.4929 67.6709 48.2736 65.5785 46.5577 64.3728H22.3707C18.9129 63.8748 17.5106 61.909 17.2232 58.5453C17.1622 43.2778 17.0098 24.2971 17.2232 5.85368C17.2667 2.84822 18.8258 0.0131316 22.0484 0.0262368C34.3771 0.0873944 39.3591 -0.0392892 51.5572 0.0087632L52.5501 0.340762L67.2087 15.2632L67.3437 43.9636H67.348ZM51.4091 1.41976H21.5955C20.6374 1.41976 18.7561 2.79144 18.7561 5.60032C18.3859 24.2316 18.8345 41.3601 18.8737 58.4623C18.878 60.6029 19.4996 62 21.4996 63C22.4996 63.5 46.5577 63 46.4996 63C45.9996 62 45.6432 58.921 45.6214 58.4667C45.5866 57.7809 45.8435 54.4827 45.9524 53.8013C45.9873 53.5741 45.665 53.5741 43.7358 52.7092C42.9996 52 43.4179 50.0845 43.5921 49.363C43.8708 48.1879 44.3672 47.0696 44.9987 46.0474C46.2834 43.9724 48.1604 42.1944 50.377 41.1635C51.5702 40.6087 52.8811 40.2767 54.2006 40.3378C56.5087 40.4427 55.7727 42.6269 56.3127 42.771C59.5484 42.0983 64.4996 42.5 66.2375 43.5879L66.2201 16.8708L66.1722 15.9491L54.9191 15.9753C53.9001 15.9753 51.4996 14 51.4396 12.1398L51.4091 1.42849V1.41976ZM63.9686 14.6953L52.7025 3.35933V11.5282C52.7025 12.4937 54.4532 14.6953 55.5201 14.6953H63.9686ZM54.3138 42.4128C49.5713 42.1988 45.6302 46.5191 45.2382 51.0535L58.6687 55.7015L54.3182 42.4172L54.3138 42.4128ZM47.4026 54.0328C44.6198 65.9891 58.4031 74.9705 68.1014 67.3608C78.9407 58.8555 71.3023 41.7357 57.5016 44.0379C57.0269 44.1165 56.9093 44.1602 57.0008 44.5359L60.9855 58.0342C60.206 58.7987 49.2447 54.308 47.4026 54.0328Z" fill="#1B365E"/>
<path d="M47.4033 54.0328C49.2454 54.308 60.2066 58.7987 60.9862 58.0342L57.0014 44.5359C56.7532 43.968 57.0319 44.1296 57.5023 44.0379C72.5963 41.1154 79.4117 59.502 68.5724 68.0073C58.8741 75.6171 44.2939 67.6622 47.4033 54.0328Z" fill="white"/>
<path d="M54.3143 42.4128L58.6649 55.6971L45.2344 51.0492C45.6307 46.5148 49.5718 42.1944 54.31 42.4085L54.3143 42.4128Z" fill="white"/>
<path d="M65.2929 14.9749L55.5118 15.0753C54.4449 15.0753 52.3502 13 52.3502 11.3098L52.25 1.69928L65.2886 14.9792L65.2929 14.9749Z" fill="white"/>
<path d="M12.4034 20.9779C13.6562 20.2579 16.2767 22.0656 16.0911 23.2235L13.1282 41.7148L11.896 41.5173L14.7792 23.5237C14.9658 22.3593 11.9527 21.7564 11.9864 23.58C9.98574 35.4604 8.53907 45.1567 6.66442 56.8561C6.22699 58.7143 5.33026 60.6991 4.19984 62.2327C3.76162 62.8297 3.15861 63.769 2.35437 64.0219C1.29715 63.4707 0.0531427 58.9494 0.14815 56.3224L6.53999 16.6188C7.49724 14.1733 10.5852 13.7273 12.2145 15.7432C12.4282 16.0077 13.0121 17.1788 12.9798 17.3805L12.4029 20.9811L12.4034 20.9779ZM11.2108 20.5333C11.5396 18.8344 12.2006 16.2448 9.79846 15.9599C7.533 15.6937 7.49601 18.2699 7.2646 19.9009L11.2108 20.5333ZM7.19403 45.6014L10.9127 22.3938L10.6025 21.9637L7.02265 21.3901L3.24456 44.9685L7.19079 45.6008L7.19403 45.6014ZM6.95532 47.0911L3.00586 46.4582L1.47461 56.0145C1.32294 56.961 1.88228 60.6103 2.29749 61.5476C2.41237 61.8062 2.19639 61.9918 2.79441 61.9541C3.15088 61.0371 3.90318 60.2235 4.30632 59.3473C4.59214 58.7259 5.41406 56.6891 5.50005 56.1524L6.95156 47.0938L6.95532 47.0911Z" fill="#1B365E"/>
<path d="M5.7949 56.7436C5.6988 57.3403 3.29719 62.8423 2.48268 62.6751C1.77455 62.6931 0.947443 56.9017 1.09887 55.9545L2.63005 46.3987L7.3318 47.1521L5.7949 56.7436ZM11.3056 22.457L7.5869 45.6649L2.85238 44.9063L6.63105 21.3243L10.921 22.0117L11.3056 22.457ZM9.7787 15.9568C12.5445 16.2966 11.8483 18.8804 11.5093 20.5809L6.96283 19.8524C7.19043 18.2242 7.17284 15.6397 9.7787 15.9568Z" fill="white"/>
<path d="M35.9671 30.6968H56.1826C56.8053 30.6968 56.8053 32.3655 56.1826 32.3655H35.9671C35.462 32.3655 35.2007 30.9982 35.9671 30.6968Z" fill="#B6C93E"/>
<path d="M35.6016 34.6982H40.527C40.6794 34.6982 40.6794 36.367 40.527 36.367H35.6016C35.4797 36.367 35.4143 34.9997 35.6016 34.6982Z" fill="#B6C93E"/>
<path d="M35.6016 44.3568H40.527C40.6794 44.3568 40.6794 46.0255 40.527 46.0255H35.6016C35.4797 46.0255 35.4143 44.6582 35.6016 44.3568Z" fill="#B6C93E"/>
<path d="M35.5616 48.083H38.9106C39.0151 48.083 39.0151 49.7517 38.9106 49.7517H35.5616C35.4789 49.7517 35.4354 48.3844 35.5616 48.083Z" fill="#B6C93E"/>
<g clip-path="url(#clip1_1068_15794)">
<path d="M29.2261 43H25.7778C25.3487 43 25 43.3569 25 43.7961V47.2039C25 47.6431 25.3487 48 25.7778 48H29.2261C29.6552 48 30.0038 47.6431 30.0038 47.2039V43.7961C30.0038 43.3569 29.6552 43 29.2261 43ZM28.9617 46.1647C28.9617 46.6039 28.613 46.9608 28.1839 46.9608H26.8123C26.3831 46.9608 26.0345 46.6039 26.0345 46.1647V44.8314C26.0345 44.3922 26.3831 44.0353 26.8123 44.0353H28.1839C28.613 44.0353 28.9617 44.3922 28.9617 44.8314V46.1647Z" fill="#40BFDE"/>
</g>
<path d="M35.9671 16.696H50.2164C50.8391 16.696 50.8391 18.3648 50.2164 18.3648H35.9671C35.462 18.3648 35.2007 16.9975 35.9671 16.696Z" fill="#B6C93E"/>
<path d="M35.6668 20.0771H41.0189C41.2541 20.0771 41.2541 21.7459 41.0189 21.7459H35.6668C35.4751 21.7459 35.3793 20.3786 35.6668 20.0771Z" fill="#B6C93E"/>
<path d="M30.7193 16.0801C31.795 15.7874 32.0519 16.8445 31.6556 17.6964C31.5293 17.9628 27.7754 21.7415 27.5097 21.8682C25.8897 22.6327 22.4494 18.7928 24.74 18.3866C25.2496 18.2948 25.881 19.4044 26.5125 19.5748C27.7275 19.9068 29.6524 16.3727 30.7193 16.0801Z" fill="#B6C93E"/>
<path d="M30.7191 30.7492C31.1677 30.6269 31.7207 30.8104 31.8209 31.2079C32.1998 32.6931 27.9842 35.2836 27.1742 36.5461C25.4062 37.4241 21.0034 30.3036 26.9739 34.34C27.9538 33.8158 29.9048 30.9676 30.7191 30.7492Z" fill="#B6C93E"/>
</g>
<defs>
<clipPath id="clip0_1068_15794">
<rect width="75" height="72" fill="white"/>
</clipPath>
<clipPath id="clip1_1068_15794">
<rect width="5" height="5" fill="white" transform="translate(25 43)"/>
</clipPath>
</defs>
</svg>
