<svg width="81" height="77" viewBox="0 0 81 77" fill="none" xmlns="http://www.w3.org/2000/svg">
<g clip-path="url(#clip0_1068_15819)">
<path d="M47.2696 51.6368C47.2288 51.6874 47.1829 51.7329 47.1369 51.7784C44.2125 54.6308 41.722 57.9434 38.6802 60.6846C37.8636 60.6846 31.6167 52.5876 30.2336 51.8543C30.1775 51.8239 30.152 51.7329 30.1009 51.7126C30.0499 51.6874 29.9631 51.7329 29.9019 51.7126C29.4987 51.571 22.818 51.5457 22.1852 51.6722C18.6994 52.3802 15.6015 55.1517 14.2592 58.3531C13.4273 60.3356 13.0394 71.548 13.4426 73.7683C13.8969 76.2515 16.0455 75.5738 18.2656 75.6952C30.4837 76.3476 47.9382 76.5094 60.0747 75.6952C61.3149 75.6143 63.3155 75.9177 63.8871 74.7292C64.2137 74.0515 63.9994 60.9172 63.6523 59.6984C62.4734 55.5462 59.1203 52.3651 54.7924 51.6317C52.6642 51.2676 49.7041 51.8694 47.4789 51.6317H47.2798L47.2696 51.6368Z" fill="white"/>
<path d="M64.3819 59.491C63.1673 55.2124 59.8652 52.0312 55.6751 51.04C55.6802 51.0147 55.2914 50.8983 55.2965 50.8731C56.7204 42.9986 56.0528 29.605 49.2241 22.0593C46.1211 18.6303 42.227 17.0473 37.649 17.3609C20.1895 18.5443 21.3975 42.685 21.7038 50.9236C21.7038 50.9944 21.4398 50.9995 21.4603 51.0652C18.0816 51.9655 14.9531 54.7117 13.5445 58.0597C12.631 60.2445 12.2584 71.5682 12.682 73.8997C13.1566 76.5144 15.2593 76.474 16.9435 76.4436C17.362 76.4335 17.7958 76.4285 18.2194 76.4487C24.3132 76.7774 32.3719 77 40.5122 77C47.3664 77 54.2767 76.8381 60.1204 76.4487C60.3603 76.4335 60.6359 76.4335 60.9166 76.4335C62.1823 76.4335 63.9124 76.4285 64.5708 75.0579C65.0505 74.0565 64.7086 60.6441 64.3819 59.496V59.491ZM37.7562 17.868C41.8442 17.5898 45.3147 19.0059 48.086 22.0657C51.9903 26.3797 56.4662 38.1131 54.19 50.691C54.1848 50.7264 54.1849 50.7618 54.1797 50.7972C53.1233 50.7112 51.9648 50.7719 50.8318 50.8377C49.6936 50.9085 48.5147 50.9793 47.545 50.8731C47.5195 50.8731 47.4889 50.8731 47.4582 50.8731H47.4378C45.4372 49.9071 45.33 48.5163 45.182 46.4377C45.1463 45.9673 45.1055 45.4818 45.0442 44.9811C48.9179 41.9314 50.8726 37.1673 50.2652 32.1806C50.2244 31.862 49.9896 31.6041 49.6783 31.5333C45.1922 30.5066 41.9259 28.8882 38.4044 25.9498C38.1645 25.7475 37.8226 25.7121 37.5419 25.8639L27.1508 31.5029C26.911 31.6344 26.7578 31.8823 26.7527 32.1554C26.6762 37.7439 28.5594 42.1843 32.0656 44.7333C31.9278 44.885 31.8513 45.0822 31.8666 45.2997C32.0554 47.6363 31.7696 49.3963 29.7792 50.9236C28.5339 50.7921 24.7215 50.8023 22.925 50.8629C22.925 50.8427 22.925 50.8174 22.925 50.7972C22.1339 29.3636 26.9773 18.5912 37.7307 17.8629L37.7562 17.868ZM43.952 43.919C43.901 43.9595 43.85 44.005 43.8091 44.0606L43.7887 44.0859C43.7275 44.1062 43.6713 44.1365 43.6152 44.1719C41.1297 45.8358 35.6994 45.3402 33.3058 43.742C29.0596 40.9048 28.3196 35.731 28.2991 32.6156L37.8328 27.4418C41.2624 30.2285 44.5083 31.8367 48.8107 32.8836C49.1629 37.2179 47.3715 41.3094 43.9469 43.914L43.952 43.919ZM33.4385 45.5425C35.0258 46.2859 37.1489 46.7259 39.2261 46.7259C40.8184 46.7259 42.3699 46.4629 43.6152 45.8965C43.6356 46.114 43.6509 46.3365 43.6662 46.5489C43.804 48.4708 43.9469 50.4533 46.0241 51.8188C44.9268 52.9314 43.8755 54.0997 42.8548 55.2377C41.4972 56.7549 40.0937 58.3227 38.5932 59.7287C37.8583 59.0611 36.3068 57.2708 35.1227 55.9052C33.3569 53.8721 32.0963 52.4409 31.2644 51.6924C33.3211 49.8312 33.5712 47.6565 33.4385 45.5374V45.5425ZM63.1622 74.4459C62.8764 74.9112 61.7893 74.9112 60.9115 74.9163C60.5899 74.9163 60.2837 74.9163 60.0132 74.9365C58.4566 75.0427 56.8234 75.1287 55.1392 75.1995C55.175 75.1135 55.1954 75.0174 55.1954 74.9213V67.0216C55.1954 66.6018 54.8534 66.2629 54.4298 66.2629C54.0062 66.2629 53.6643 66.6018 53.6643 67.0216V74.9213C53.6643 75.0427 53.6949 75.154 53.7459 75.2551C43.9776 75.6243 32.6219 75.508 23.6446 75.1742C23.6752 75.0933 23.6906 75.0124 23.6906 74.9213V66.8294C23.6906 66.4096 23.3486 66.0708 22.925 66.0708C22.5014 66.0708 22.1595 66.4096 22.1595 66.8294V74.9213C22.1595 74.9871 22.1697 75.0528 22.1901 75.1186C20.8274 75.0629 19.5209 75.0022 18.3011 74.9365C17.8214 74.9112 17.362 74.9213 16.918 74.9264C15.0756 74.9618 14.4274 74.9062 14.1927 73.6317C13.7844 71.3912 14.2386 60.3659 14.9633 58.6413C16.2596 55.5512 19.2249 53.0478 22.3279 52.4156C22.9811 52.3043 28.9779 52.3296 29.6975 52.4409C29.7231 52.4459 29.7486 52.4459 29.7741 52.451C29.8047 52.4763 29.8353 52.5066 29.8711 52.5218C30.4223 52.8101 32.4688 55.1719 33.9642 56.8914C37.3887 60.8363 38.0114 61.4381 38.68 61.4381H38.6851C38.8739 61.4381 39.0576 61.3673 39.1954 61.2409C40.9256 59.6832 42.4924 57.9333 44.0031 56.239C45.1514 54.9595 46.3354 53.6344 47.5909 52.4004C48.6372 52.4864 49.8008 52.4206 50.9287 52.3549C52.2404 52.279 53.5979 52.1981 54.6544 52.3751C58.6148 53.0478 61.7791 55.9305 62.907 59.9006C63.203 60.9728 63.4122 73.1158 63.1622 74.4409V74.4459Z" fill="#1B365E"/>
<path d="M80.9233 50.2612C80.7753 50.0235 80.4639 49.9476 80.2241 50.0943C79.9076 50.2865 79.382 50.7619 78.545 51.5205C78.152 51.8745 77.6212 52.3601 77.167 52.7444C80.5405 36.515 73.3341 19.3044 59.3706 10.5601C54.3486 7.41431 49.25 6.14489 43.1358 4.83501L39.5837 0.202362C39.4153 -0.0201669 39.0938 -0.0656842 38.8692 0.10627C38.6446 0.273166 38.5987 0.591787 38.7722 0.814316L41.8395 4.81983C32.2242 3.86903 22.1445 7.07546 14.1063 13.6805C5.89453 20.4272 0.790878 29.8796 0.0916782 39.6253C-0.362547 45.9927 0.857225 50.6304 3.28656 56.7955L0.8215 63.5775C0.724531 63.8405 0.862329 64.1288 1.12772 64.2249C1.18386 64.2451 1.2451 64.2552 1.30124 64.2552C1.51049 64.2552 1.70443 64.1288 1.78099 63.9214L4.06232 57.6451L9.80392 60.5481C9.88048 60.5835 9.95703 60.6037 10.0336 60.6037C10.2173 60.6037 10.3959 60.5026 10.4878 60.3306C10.6154 60.0828 10.5184 59.7794 10.2632 59.6479L4.3124 56.6387C1.88306 50.504 0.658183 45.9472 1.1022 39.7012C1.78099 30.2336 6.75194 21.0341 14.7494 14.4644C22.5477 8.05661 32.3008 4.93615 41.615 5.82121C40.2778 7.18673 37.8485 9.66489 37.9148 9.83684C37.6545 10.2768 38.1088 10.732 38.5477 10.5854C38.7161 10.4893 38.91 10.1453 39.0427 9.95822L43.0083 5.85156C48.9846 7.1311 53.9658 8.38535 58.8194 11.4249C72.5788 20.0378 79.6014 37.0916 76.0493 53.063C74.9418 52.1274 72.4716 49.3964 72.1297 48.658C72.0123 48.4051 71.7112 48.2938 71.4509 48.4102C71.1957 48.5265 71.0834 48.8249 71.2008 49.0828C71.5019 49.7302 75.299 54.3325 76.3759 54.3729C76.381 54.3729 76.3912 54.3729 76.3963 54.3729C76.8455 54.3729 77.4528 53.8874 79.2289 52.2741C79.826 51.7329 80.5048 51.1159 80.7497 50.9693C80.9896 50.8226 81.0662 50.5141 80.9182 50.2764L80.9233 50.2612Z" fill="#1B365E"/>
<path d="M22.1756 51.6671C22.8084 51.5356 29.4891 51.5659 29.8923 51.7076C29.9535 51.7278 30.0403 51.6873 30.0913 51.7076L30.2393 51.5508C32.4543 49.8616 32.8575 47.8841 32.6483 45.2441L32.8779 44.3692C28.7899 41.6381 27.4681 36.7981 27.5344 32.1655L37.9254 26.5264C41.549 29.5558 44.9276 31.2197 49.5209 32.2666C50.0874 36.96 48.2399 41.6027 44.4173 44.5108C44.3509 44.5614 44.3254 44.6676 44.2591 44.7181C44.6878 47.6009 44.0345 50.16 47.2702 51.6266H47.4693C49.6945 51.8593 52.6546 51.2574 54.7828 51.6216L55.5002 51.0002C57.5723 39.5248 53.808 15.4179 37.9254 16.5002C21.0002 17.6535 21.0868 39.7473 21.5002 51.0002C21.5104 51.2682 22.0837 51.3889 22.1756 51.662V51.6671Z" fill="#A47864"/>
<path d="M30.0961 51.7126C30.1472 51.7328 30.1727 51.8239 30.2288 51.8542C31.6119 52.5875 37.8588 60.6896 38.6754 60.6845C41.7171 57.9434 44.2077 54.6358 47.1321 51.7783C47.1781 51.7328 47.224 51.6823 47.2648 51.6367C44.0291 50.1701 44.6773 47.616 44.2537 44.7282C44.1975 44.7687 44.1006 44.7586 44.0393 44.8041C41.3242 46.6197 35.5979 46.1949 32.8725 44.3742L32.6429 45.2492C32.8521 47.8892 32.454 49.8666 30.2339 51.5558L30.0859 51.7126H30.0961Z" fill="#FEEBC7"/>
<path d="M32.8771 44.3743C35.5974 46.195 41.3288 46.6198 44.0439 44.8041C44.1052 44.7637 44.2021 44.7738 44.2583 44.7283C44.3246 44.6777 44.3501 44.5715 44.4165 44.5209C48.2391 41.6078 50.0866 36.9701 49.5201 32.2768C44.9268 31.2299 41.5482 29.5609 37.9246 26.5366L27.5336 32.1756C27.4673 36.8083 28.7891 41.6483 32.8771 44.3793V44.3743Z" fill="#FEEBC7"/>
<circle cx="10" cy="19" r="3" fill="#B6C93E"/>
<circle cx="58" cy="10" r="3" fill="#40BFDE"/>
<circle cx="77" cy="40" r="3" fill="#1B365E"/>
</g>
<defs>
<clipPath id="clip0_1068_15819">
<rect width="81" height="77" fill="white"/>
</clipPath>
</defs>
</svg>
