<svg width="113" height="113" viewBox="0 0 113 113" fill="none" xmlns="http://www.w3.org/2000/svg">
<g clip-path="url(#clip0_336_5829)">
<path d="M36.889 67.7581L54.7813 78.7032L50.4617 82.2078L35.942 73.3256L36.889 67.7581Z" fill="#1B365E"/>
<path d="M35.2423 81.5034C35.9895 78.2723 36.5367 77.3776 38.7995 75.6883C38.9994 73.3519 46.951 79.4454 47.1247 80.1664C47.2983 80.8873 45.9302 83.1239 44.562 85.3604C43.4675 87.1496 38.321 89.5336 35.8846 90.5019L34.99 89.9547C34.825 88.2146 34.6446 84.0882 35.2423 81.5034Z" fill="url(#paint0_linear_336_5829)"/>
<path d="M62.2358 46.4203C60.7263 45.4969 58.9769 45.0418 57.2088 45.1127C55.4406 45.1835 53.7332 45.7771 52.3025 46.8183C50.8717 47.8596 49.7818 49.3017 49.1706 50.9623C48.5595 52.623 48.4545 54.4276 48.8689 56.1479C49.2833 57.8682 50.1986 59.427 51.499 60.6271C52.7993 61.8273 54.4264 62.6149 56.1743 62.8903C57.9223 63.1658 59.7127 62.9167 61.3191 62.1746C62.9255 61.4325 64.2758 60.2307 65.1992 58.7212C66.4374 56.6971 66.8209 54.2639 66.2651 51.957C65.7094 49.6501 64.26 47.6585 62.2358 46.4203ZM53.5652 60.5943C52.2713 59.8028 51.2412 58.6454 50.6052 57.2685C49.9691 55.8916 49.7556 54.357 49.9917 52.8587C50.2278 51.3604 50.9029 49.9658 51.9316 48.8513C52.9603 47.7367 54.2964 46.9522 55.7709 46.5969C57.2455 46.2417 58.7923 46.3317 60.2157 46.8556C61.6391 47.3794 62.8752 48.3136 63.7677 49.54C64.6602 50.7664 65.1689 52.2298 65.2297 53.7454C65.2904 55.2609 64.9004 56.7604 64.1089 58.0543C63.0475 59.7893 61.3404 61.0316 59.3631 61.508C57.3858 61.9843 55.3002 61.6557 53.5652 60.5943Z" fill="#1B365E"/>
<path d="M79.8946 79.57L72.2699 58.1845L77.7757 49.184C82.6346 41.2411 82.0007 33.3618 81.9633 33.7659C81.9633 33.7659 81.9799 33.7386 81.99 33.7223C81.9153 30.4574 81.2443 27.2338 80.0099 24.2104C79.5344 23.0144 78.6838 22.0048 77.5859 21.3332C76.488 20.6615 75.2019 20.3641 73.9205 20.4853C69.587 20.9045 65.4113 22.3307 61.7267 24.65C58.0421 26.9693 54.9505 30.1176 52.6986 33.8437L47.1927 42.8442L24.6812 45.7945C24.2455 45.8577 24.4941 45.6351 20.4155 52.3024C20.3271 52.4469 20.2997 52.6207 20.3394 52.7855C20.3791 52.9503 20.4826 53.0926 20.6272 53.181L35.3573 62.1918C34.7177 63.1134 34.4698 64.2511 34.6678 65.3554C34.8659 66.4596 35.4938 67.4402 36.4138 68.0822L34.9664 72.6281C34.9206 72.7677 34.9242 72.9188 34.9767 73.056C35.0292 73.1932 35.1274 73.3081 35.2548 73.3814L38.095 75.1188C37.23 75.5619 36.5043 76.2354 35.9981 77.065C33.2368 81.5788 34.5319 90.3122 34.589 90.6842C34.6011 90.7791 34.6344 90.8701 34.6864 90.9505C34.7384 91.0308 34.8078 91.0984 34.8894 91.1484C34.9711 91.1983 35.0629 91.2292 35.1581 91.239C35.2533 91.2487 35.3494 91.2369 35.4395 91.2045C35.7967 91.0859 44.145 88.2892 46.923 83.748C47.43 82.9109 47.694 81.9492 47.6855 80.9706L50.5258 82.7081C50.649 82.7881 50.796 82.8231 50.9421 82.8074C51.0881 82.7917 51.2243 82.7262 51.3277 82.6218L54.7201 79.2806C56.4979 80.2932 59.0171 79.849 60.4345 77.5321L75.1537 86.5362C75.2982 86.6247 75.472 86.6521 75.6368 86.6124C75.8016 86.5727 75.9439 86.4691 76.0323 86.3246C80.1108 79.6573 80.0368 79.9866 79.8946 79.57ZM74.0387 21.7862C75.0425 21.6909 76.0501 21.9238 76.9102 22.45C77.7703 22.9762 78.4366 23.7672 78.8088 24.7042C79.8699 27.3292 80.4811 30.1141 80.6167 32.9422C74.7241 31.9372 69.4429 28.7066 65.8648 23.9181C68.4471 22.749 71.2092 22.027 74.0332 21.7829L74.0387 21.7862ZM21.8502 52.4308L25.1451 47.0447L46.3223 44.2671L36.0243 61.1015L21.8502 52.4308ZM45.8042 83.0786C43.7432 86.4477 37.8671 88.9137 35.7737 89.6784C35.5254 87.4513 35.0341 81.0901 37.0817 77.7428C37.6287 76.8646 38.4878 76.2259 39.4864 75.955L46.3008 80.1236C46.5135 81.1316 46.3386 82.1829 45.8108 83.0677L45.8042 83.0786ZM50.7566 81.351L36.3645 72.547L37.5531 68.7791L53.5698 78.5769L50.7566 81.351ZM59.2474 77.0232C59.059 77.3575 58.8062 77.6511 58.5037 77.8872C58.2012 78.1233 57.855 78.2972 57.485 78.3989C57.115 78.5005 56.7285 78.528 56.3479 78.4796C55.9672 78.4312 55.5999 78.3079 55.2671 78.1169L37.1898 67.0585C36.8682 66.8492 36.5912 66.5783 36.3747 66.2615C36.1583 65.9446 36.0067 65.5881 35.9288 65.2124C35.8508 64.8367 35.8479 64.4492 35.9204 64.0724C35.9928 63.6956 36.1392 63.3369 36.3509 63.0169L53.7889 34.5107C56.4084 30.2158 60.1774 26.7397 64.6698 24.4756C68.4962 29.7191 74.2429 33.2345 80.6537 34.2534C80.7437 43.6953 76.3319 49.0949 71.0161 57.7847L59.2474 77.0232ZM75.2755 85.1124L61.1014 76.4418L71.3928 59.6183L78.5636 79.7372L75.2755 85.1124Z" fill="#1B365E"/>
<line x1="54.445" y1="102.546" x2="62.6112" y2="91.6576" stroke="#1B365E" stroke-linecap="round"/>
<line x1="22.5025" y1="66.9341" x2="14.3363" y2="77.8223" stroke="#1B365E" stroke-linecap="round"/>
<line x1="53.4709" y1="92.8059" x2="61.6371" y2="81.9176" stroke="#1B365E" stroke-linecap="round"/>
<line x1="31.2686" y1="66.9341" x2="23.1024" y2="77.8223" stroke="#1B365E" stroke-linecap="round"/>
<circle cx="90.5836" cy="51.6231" r="1.94804" fill="#1B365E"/>
<circle cx="81.3306" cy="60.8762" r="0.487009" fill="#1B365E"/>
<circle cx="93.5059" cy="69.1554" r="0.974018" fill="#1B365E"/>
<circle cx="40.9087" cy="30.1945" r="0.974018" fill="#1B365E"/>
<circle opacity="0.6" cx="57.4672" cy="54.5459" r="6.81813" fill="#40BFDE"/>
</g>
<defs>
<linearGradient id="paint0_linear_336_5829" x1="43.3682" y1="77.0122" x2="35.3254" y2="90.1599" gradientUnits="userSpaceOnUse">
<stop stop-color="#FFBC41"/>
<stop offset="1" stop-color="#FF5758"/>
</linearGradient>
<clipPath id="clip0_336_5829">
<rect width="81.8006" height="81.8006" fill="white" transform="translate(42.6861) rotate(31.4552)"/>
</clipPath>
</defs>
</svg>
