<svg width="123" height="61" viewBox="0 0 123 61" fill="none" xmlns="http://www.w3.org/2000/svg">
<mask id="mask0_326_4094" style="mask-type:alpha" maskUnits="userSpaceOnUse" x="0" y="0" width="123" height="61">
<rect width="123" height="61" rx="4" fill="#D9D9D9"/>
</mask>
<g mask="url(#mask0_326_4094)">
<path d="M14.912 45.429C12.884 45.429 10.999 45.078 9.257 44.376C7.541 43.648 6.02 42.647 4.694 41.373C3.394 40.073 2.38 38.578 1.652 36.888C0.95 35.172 0.599 33.326 0.599 31.35C0.599 29.374 0.95 27.541 1.652 25.851C2.38 24.135 3.394 22.64 4.694 21.366C6.02 20.066 7.554 19.065 9.296 18.363C11.038 17.635 12.91 17.271 14.912 17.271C16.342 17.271 17.733 17.466 19.085 17.856C20.463 18.22 21.724 18.753 22.868 19.455C24.038 20.157 25.052 21.002 25.91 21.99L23.18 24.798C22.166 23.576 20.931 22.653 19.475 22.029C18.019 21.379 16.498 21.054 14.912 21.054C13.456 21.054 12.104 21.314 10.856 21.834C9.634 22.354 8.568 23.082 7.658 24.018C6.748 24.928 6.033 26.007 5.513 27.255C5.019 28.503 4.772 29.868 4.772 31.35C4.772 32.806 5.019 34.158 5.513 35.406C6.033 36.654 6.761 37.746 7.697 38.682C8.633 39.618 9.725 40.346 10.973 40.866C12.221 41.386 13.573 41.646 15.029 41.646C16.615 41.646 18.11 41.334 19.514 40.71C20.944 40.06 22.153 39.15 23.141 37.98L25.832 40.71C24.922 41.672 23.882 42.517 22.712 43.245C21.568 43.947 20.32 44.493 18.968 44.883C17.642 45.247 16.29 45.429 14.912 45.429ZM42.683 45.429C40.707 45.429 38.861 45.078 37.145 44.376C35.429 43.648 33.908 42.647 32.582 41.373C31.282 40.073 30.268 38.578 29.54 36.888C28.838 35.172 28.487 33.326 28.487 31.35C28.487 29.374 28.838 27.541 29.54 25.851C30.268 24.135 31.282 22.64 32.582 21.366C33.908 20.066 35.429 19.065 37.145 18.363C38.861 17.635 40.707 17.271 42.683 17.271C44.659 17.271 46.505 17.635 48.221 18.363C49.963 19.065 51.484 20.066 52.784 21.366C54.084 22.64 55.098 24.135 55.826 25.851C56.554 27.541 56.918 29.374 56.918 31.35C56.918 33.326 56.554 35.172 55.826 36.888C55.098 38.578 54.084 40.073 52.784 41.373C51.484 42.647 49.963 43.648 48.221 44.376C46.505 45.078 44.659 45.429 42.683 45.429ZM42.722 41.646C44.126 41.646 45.426 41.386 46.622 40.866C47.844 40.346 48.91 39.631 49.82 38.721C50.73 37.785 51.445 36.693 51.965 35.445C52.485 34.171 52.745 32.806 52.745 31.35C52.745 29.868 52.485 28.503 51.965 27.255C51.445 26.007 50.73 24.928 49.82 24.018C48.91 23.082 47.844 22.354 46.622 21.834C45.426 21.314 44.126 21.054 42.722 21.054C41.292 21.054 39.966 21.314 38.744 21.834C37.522 22.354 36.456 23.082 35.546 24.018C34.636 24.928 33.921 26.007 33.401 27.255C32.907 28.503 32.66 29.855 32.66 31.311C32.66 32.793 32.907 34.171 33.401 35.445C33.921 36.693 34.636 37.785 35.546 38.721C36.456 39.631 37.522 40.346 38.744 40.866C39.966 41.386 41.292 41.646 42.722 41.646ZM61.6203 45V17.7H81.8223V21.288H65.7153V29.673H76.3233V33.144H65.7153V45H61.6203Z" fill="#1D1D1D"/>
</g>
</svg>
