<svg width="123" height="61" viewBox="0 0 123 61" fill="none" xmlns="http://www.w3.org/2000/svg">
<mask id="mask0_326_4088" style="mask-type:alpha" maskUnits="userSpaceOnUse" x="0" y="0" width="123" height="61">
<rect width="123" height="61" rx="4" fill="#D9D9D9"/>
</mask>
<g mask="url(#mask0_326_4088)">
<path d="M14.795 45.429C12.819 45.429 10.973 45.078 9.257 44.376C7.541 43.648 6.02 42.647 4.694 41.373C3.394 40.073 2.38 38.578 1.652 36.888C0.95 35.172 0.599 33.326 0.599 31.35C0.599 29.374 0.95 27.541 1.652 25.851C2.38 24.135 3.394 22.64 4.694 21.366C6.02 20.066 7.541 19.065 9.257 18.363C10.973 17.635 12.819 17.271 14.795 17.271C16.771 17.271 18.617 17.635 20.333 18.363C22.075 19.065 23.596 20.066 24.896 21.366C26.196 22.64 27.21 24.135 27.938 25.851C28.666 27.541 29.03 29.374 29.03 31.35C29.03 33.326 28.666 35.172 27.938 36.888C27.21 38.578 26.196 40.073 24.896 41.373C23.596 42.647 22.075 43.648 20.333 44.376C18.617 45.078 16.771 45.429 14.795 45.429ZM14.834 41.646C16.238 41.646 17.538 41.386 18.734 40.866C19.956 40.346 21.022 39.631 21.932 38.721C22.842 37.785 23.557 36.693 24.077 35.445C24.597 34.171 24.857 32.806 24.857 31.35C24.857 29.868 24.597 28.503 24.077 27.255C23.557 26.007 22.842 24.928 21.932 24.018C21.022 23.082 19.956 22.354 18.734 21.834C17.538 21.314 16.238 21.054 14.834 21.054C13.404 21.054 12.078 21.314 10.856 21.834C9.634 22.354 8.568 23.082 7.658 24.018C6.748 24.928 6.033 26.007 5.513 27.255C5.019 28.503 4.772 29.855 4.772 31.311C4.772 32.793 5.019 34.171 5.513 35.445C6.033 36.693 6.748 37.785 7.658 38.721C8.568 39.631 9.634 40.346 10.856 40.866C12.078 41.386 13.404 41.646 14.834 41.646ZM33.7322 45V17.7H46.3682C48.1622 17.7 49.7222 18.051 51.0482 18.753C52.3742 19.429 53.4142 20.378 54.1682 21.6C54.9222 22.822 55.2992 24.239 55.2992 25.851C55.2992 27.463 54.9222 28.88 54.1682 30.102C53.4142 31.324 52.3612 32.286 51.0092 32.988C49.6832 33.664 48.1362 34.002 46.3682 34.002H37.8272V45H33.7322ZM37.8272 30.531H45.9392C47.5512 30.531 48.8252 30.115 49.7612 29.283C50.7232 28.425 51.2042 27.294 51.2042 25.89C51.2042 24.486 50.7232 23.368 49.7612 22.536C48.8252 21.704 47.5512 21.288 45.9392 21.288H37.8272V30.531ZM73.0494 45.429C71.0214 45.429 69.1364 45.078 67.3944 44.376C65.6784 43.648 64.1574 42.647 62.8314 41.373C61.5314 40.073 60.5174 38.578 59.7894 36.888C59.0874 35.172 58.7364 33.326 58.7364 31.35C58.7364 29.374 59.0874 27.541 59.7894 25.851C60.5174 24.135 61.5314 22.64 62.8314 21.366C64.1574 20.066 65.6914 19.065 67.4334 18.363C69.1754 17.635 71.0474 17.271 73.0494 17.271C74.4794 17.271 75.8704 17.466 77.2224 17.856C78.6004 18.22 79.8614 18.753 81.0054 19.455C82.1754 20.157 83.1894 21.002 84.0474 21.99L81.3174 24.798C80.3034 23.576 79.0684 22.653 77.6124 22.029C76.1564 21.379 74.6354 21.054 73.0494 21.054C71.5934 21.054 70.2414 21.314 68.9934 21.834C67.7714 22.354 66.7054 23.082 65.7954 24.018C64.8854 24.928 64.1704 26.007 63.6504 27.255C63.1564 28.503 62.9094 29.868 62.9094 31.35C62.9094 32.806 63.1564 34.158 63.6504 35.406C64.1704 36.654 64.8984 37.746 65.8344 38.682C66.7704 39.618 67.8624 40.346 69.1104 40.866C70.3584 41.386 71.7104 41.646 73.1664 41.646C74.7524 41.646 76.2474 41.334 77.6514 40.71C79.0814 40.06 80.2904 39.15 81.2784 37.98L83.9694 40.71C83.0594 41.672 82.0194 42.517 80.8494 43.245C79.7054 43.947 78.4574 44.493 77.1054 44.883C75.7794 45.247 74.4274 45.429 73.0494 45.429ZM85.6358 45L96.9068 17.7H101.743L112.897 45H108.451L105.292 37.005H93.0848L89.8868 45H85.6358ZM94.4108 33.612H103.966L99.2078 21.6L94.4108 33.612Z" fill="#1D1D1D"/>
</g>
</svg>
