<svg width="125" height="61" viewBox="0 0 125 61" fill="none" xmlns="http://www.w3.org/2000/svg">
<mask id="mask0_326_4099" style="mask-type:alpha" maskUnits="userSpaceOnUse" x="2" y="0" width="123" height="61">
<rect x="2" width="123" height="61" rx="4" fill="#D9D9D9"/>
</mask>
<g mask="url(#mask0_326_4099)">
</g>
<g clip-path="url(#clip0_326_4099)">
<path d="M44.1318 17.5617C44.1205 22.1096 42.1017 26.6402 36.9329 26.4052C31.7158 26.1674 30.1252 21.5063 30.3634 16.9323C30.3634 16.8946 30.3775 16.8569 30.3775 16.8192L30.8737 16.8743C32.5948 16.4914 34.3981 16.3754 36.0965 15.8794C36.7968 15.6764 39.462 14.4698 39.652 14.4669C40.5536 14.4524 42.5894 16.3493 43.3096 16.9758C43.5648 17.1962 43.7973 17.4573 44.1318 17.5588V17.5617Z" fill="#FEDAAB"/>
<path d="M33.0438 29.7785C33.0703 29.7925 33.0835 29.8555 33.1127 29.8765C33.8311 30.3842 37.0758 35.9926 37.5 35.9891C39.08 34.0916 40.3736 31.802 41.8926 29.824C41.9165 29.7925 41.9403 29.7575 41.9615 29.726C40.2808 28.7107 40.6175 26.9428 40.3975 24.9438C40.3683 24.9718 40.3179 24.9648 40.2861 24.9963C38.8758 26.2531 35.9015 25.959 34.4859 24.6987L34.3666 25.3044C34.4753 27.1318 34.2685 28.5007 33.1153 29.67L33.0385 29.7785H33.0438Z" fill="#FEDAAB"/>
<path d="M44.1319 17.5616C43.7973 17.463 43.5648 17.2019 43.3096 16.9786C42.5894 16.3521 40.5537 14.4552 39.652 14.4697C39.4621 14.4697 36.7968 15.6763 36.0965 15.8822C34.3981 16.3782 32.5977 16.4942 30.8738 16.8771L30.3776 16.822C30.9248 7.58977 42.7199 7.83631 44.0412 15.627C44.0468 15.6618 44.0355 15.6995 44.0412 15.7343C44.1376 16.3637 44.1319 16.9264 44.129 17.5645L44.1319 17.5616Z" fill="#A47864"/>
<path d="M34.6533 29.7549C34.6873 29.7549 34.7242 29.7549 34.761 29.7549C34.6986 29.9492 34.761 30.1232 34.8064 30.3031C35.0361 31.2341 36.9357 36.7827 37.3242 37.357H37.4688C38.0415 36.4985 39.4734 31.6373 39.8987 30.3002C39.9667 30.0826 39.944 29.868 40.1227 29.7056C49.9075 29.9405 52.8903 32.7279 51.7845 43.1087C51.6852 44.0368 51.6569 44.6836 50.5284 44.7996L27.1084 44.8199C25.9601 44.7793 23.6209 45.0897 23.1361 43.9643C22.9886 43.622 22.9688 37.1395 23.0538 36.4782C23.8761 29.9521 29.819 29.8709 34.6561 29.752L34.6533 29.7549Z" fill="#E2E6E7"/>
<path d="M40.1198 29.7086C39.9412 29.871 39.9638 30.0857 39.8958 30.3032C39.4677 31.6374 38.0358 36.4986 37.4659 37.36H37.3213C36.9328 36.7857 35.0332 31.2371 34.8035 30.3061C34.7581 30.1234 34.6958 29.9522 34.7581 29.7579C34.7213 29.7579 34.6873 29.7579 34.6504 29.7579C34.6844 29.7579 34.7213 29.7579 34.7581 29.7579C36.465 29.7173 38.4271 29.6709 40.1198 29.7115V29.7086Z" fill="#40BFDE"/>
</g>
<g clip-path="url(#clip1_326_4099)">
<path d="M26.8799 31.6999C22.9799 40.1999 13.5799 45.7999 7.17995 44.0999C1.57995 42.5999 0.479948 35.8999 4.07995 29.2999C7.47995 22.8999 14.5799 17.8999 20.5799 17.6999C27.2799 17.5999 30.5799 23.6999 26.8799 31.6999Z" fill="#F8AB5D"/>
<path d="M24.8799 29.9999C20.9799 38.4999 11.5799 44.0999 5.17995 42.3999C-0.420053 40.8999 -1.52005 34.1999 2.07995 27.5999C5.47995 21.1999 12.5799 16.1999 18.5799 15.9999C25.3799 15.7999 28.5799 21.8999 24.8799 29.9999Z" fill="#FFE779"/>
<path d="M21.68 29.6998C18.68 35.9998 11.78 40.2998 6.88001 39.1998C2.48001 38.1998 1.48001 33.0998 4.28001 27.7998C6.98001 22.7998 12.58 18.7998 17.18 18.7998C22.28 18.7998 24.58 23.5998 21.68 29.6998Z" fill="#F8AB5D"/>
<path d="M9.21791 32.6871C7.93632 31.6574 7.55 29.9924 8.24308 28.3634L7.17665 27.5066L7.66519 26.8985L8.61937 27.6652C8.72843 27.4911 8.84685 27.3246 8.98213 27.1562C9.13245 26.9691 9.29213 26.7895 9.463 26.6343L8.49946 25.8602L9.02558 25.2053L10.1388 26.0997C11.5256 25.1975 13.1842 25.2216 14.4003 26.1986C15.579 27.1456 15.8481 28.3625 15.604 29.4902L14.4593 29.3247C14.6146 28.5567 14.4346 27.6886 13.6675 27.0723C12.9285 26.4785 11.9953 26.4522 11.1304 26.8964L12.8516 28.2794L12.3255 28.9342L10.4078 27.3934C10.237 27.5486 10.0754 27.7113 9.9176 27.9078C9.78231 28.0761 9.65638 28.252 9.55483 28.4168L11.4913 29.9726L11.0027 30.5806L9.21597 29.1451C8.86895 30.1901 9.12743 31.152 9.91322 31.7834C10.6803 32.3997 11.5593 32.3978 12.2833 32.0713L12.6915 33.1535C11.6522 33.6424 10.3966 33.6341 9.21791 32.6871Z" fill="#FFE779"/>
</g>
<defs>
<clipPath id="clip0_326_4099">
<rect width="29" height="35" fill="white" transform="translate(23 9.83496)"/>
</clipPath>
<clipPath id="clip1_326_4099">
<rect width="28.42" height="28.41" fill="white" transform="translate(0 16)"/>
</clipPath>
</defs>
</svg>
