<svg width="258" height="18" viewBox="0 0 258 18" fill="none" xmlns="http://www.w3.org/2000/svg">
<g clip-path="url(#clip0_1049_13120)">
<path d="M103.398 17.081V0.403854H114.546V3.46917H106.798V6.98469H113.525V10.05H106.798V17.081H103.398Z" fill="#1B365E"/>
<path d="M124.851 17.4915C123.267 17.4915 121.876 17.1274 120.669 16.3925C119.463 15.6576 118.522 14.6381 117.84 13.3272C117.177 12.0163 116.839 10.4936 116.839 8.759C116.839 7.02442 117.17 5.4752 117.84 4.16433C118.522 2.85346 119.463 1.8339 120.669 1.09901C121.876 0.364131 123.267 0 124.851 0C126.435 0 127.853 0.364131 129.06 1.09901C130.266 1.81403 131.2 2.82698 131.863 4.13785C132.546 5.44872 132.884 6.98469 132.884 8.75238C132.884 10.5201 132.546 12.0362 131.863 13.3471C131.18 14.6579 130.239 15.6775 129.033 16.4124C127.827 17.1274 126.435 17.4915 124.851 17.4915ZM124.851 14.2077C125.799 14.2077 126.621 13.9826 127.297 13.5391C127.979 13.0955 128.51 12.4599 128.887 11.6522C129.265 10.8246 129.457 9.85802 129.457 8.759C129.457 7.65999 129.265 6.68015 128.887 5.86582C128.51 5.03825 127.979 4.39605 127.297 3.95248C126.614 3.5089 125.792 3.2838 124.825 3.2838C123.857 3.2838 123.095 3.5089 122.399 3.95248C121.703 4.38281 121.166 5.00515 120.782 5.81947C120.418 6.6338 120.239 7.61365 120.239 8.759C120.239 9.90436 120.418 10.8643 120.782 11.6787C121.16 12.493 121.703 13.122 122.399 13.5655C123.095 13.9959 123.91 14.2143 124.845 14.2143L124.851 14.2077Z" fill="#1B365E"/>
<path d="M136.19 17.081V0.403854H141.843C143.209 0.403854 144.302 0.602471 145.124 0.999705C145.966 1.39694 146.575 1.96631 146.953 2.70119C147.351 3.43607 147.55 4.29674 147.55 5.28321C147.55 6.8589 147.099 8.07709 146.198 8.9179C145.31 9.76533 144.05 10.2354 142.42 10.3281H139.59V17.0744H136.19V17.081ZM145.097 17.081L140.989 9.9507L144.481 9.54685L149.041 17.081H145.097ZM139.584 7.276H141.486C141.943 7.276 142.374 7.22965 142.771 7.13035C143.182 7.03766 143.507 6.85228 143.746 6.58084C143.997 6.29615 144.123 5.87906 144.123 5.33617C144.123 4.79329 143.997 4.36957 143.746 4.11799C143.507 3.84655 143.182 3.67441 142.771 3.59496C142.374 3.51552 141.95 3.4758 141.486 3.4758H139.584V7.28262V7.276Z" fill="#1B365E"/>
<path d="M151.758 17.0811V0.403854H156.722L160.811 12.1487H160.194L164.283 0.403854H169.247V17.0811H165.847V4.42916L166.159 4.4755L162.169 15.598H158.869L154.853 4.4755L155.164 4.42916V17.0877H151.764L151.758 17.0811Z" fill="#1B365E"/>
<path d="M171.819 17.081L178.592 0.403854H181.111L187.884 17.081H184.179L179.878 5.4752L175.531 17.081H171.826H171.819ZM176.478 14.0422L177.545 10.9769H182.178L183.271 14.0422H176.478Z" fill="#1B365E"/>
<path d="M191.945 17.081V3.46917H186.955V0.403854H200.355V3.46917H195.392V17.081H191.945Z" fill="#1B365E"/>
<path d="M203.04 17.081V0.403854H206.44V17.081H203.04Z" fill="#1B365E"/>
<path d="M217.739 17.4915C216.155 17.4915 214.763 17.1274 213.557 16.3925C212.351 15.6576 211.41 14.6381 210.727 13.3272C210.065 12.0163 209.727 10.4936 209.727 8.759C209.727 7.02442 210.058 5.4752 210.727 4.16433C211.41 2.85346 212.351 1.8339 213.557 1.09901C214.763 0.364131 216.155 0 217.739 0C219.323 0 220.741 0.364131 221.947 1.09901C223.153 1.81403 224.088 2.82698 224.751 4.13785C225.433 5.44872 225.771 6.98469 225.771 8.75238C225.771 10.5201 225.433 12.0362 224.751 13.3471C224.068 14.6579 223.127 15.6775 221.921 16.4124C220.715 17.1274 219.323 17.4915 217.739 17.4915ZM217.739 14.2077C218.687 14.2077 219.508 13.9826 220.184 13.5391C220.867 13.0955 221.397 12.4599 221.775 11.6522C222.153 10.8246 222.345 9.85802 222.345 8.759C222.345 7.65999 222.153 6.68015 221.775 5.86582C221.397 5.03825 220.867 4.39605 220.184 3.95248C219.502 3.5089 218.68 3.2838 217.712 3.2838C216.745 3.2838 215.983 3.5089 215.287 3.95248C214.591 4.38281 214.054 5.00515 213.67 5.81947C213.305 6.6338 213.126 7.61365 213.126 8.759C213.126 9.90436 213.312 10.8643 213.67 11.6787C214.048 12.493 214.591 13.122 215.287 13.5655C215.983 13.9959 216.798 14.2143 217.732 14.2143L217.739 14.2077Z" fill="#1B365E"/>
<path d="M229.072 17.081V0.403854H232.565L240.027 12.5791H239.146V0.403854H242.565V17.081H239.046L231.61 4.87935H232.465V17.081H229.065H229.072Z" fill="#1B365E"/>
<path d="M252.135 17.4187C250.332 17.4187 248.848 16.9486 247.695 16.0085C246.555 15.0684 245.859 13.8171 245.601 12.2547L248.927 11.4205C249.1 12.4069 249.484 13.1484 250.067 13.645C250.651 14.1415 251.38 14.3865 252.254 14.3865C252.698 14.3865 253.103 14.3137 253.467 14.168C253.832 14.0091 254.117 13.784 254.322 13.4993C254.528 13.2146 254.634 12.8704 254.634 12.4731C254.634 12.109 254.521 11.7846 254.302 11.5132C254.097 11.2285 253.765 10.9637 253.301 10.7253C252.844 10.487 252.254 10.2288 251.545 9.95733C250.465 9.52699 249.57 9.07017 248.861 8.59349C248.145 8.09695 247.615 7.5342 247.271 6.89201C246.939 6.25643 246.774 5.51493 246.774 4.6675C246.774 3.76048 246.992 2.95277 247.436 2.25099C247.88 1.54921 248.497 0.999707 249.292 0.602473C250.101 0.205239 251.035 0.00662231 252.095 0.00662231C253.235 0.00662231 254.243 0.271445 255.111 0.794469C255.979 1.31749 256.688 2.11196 257.225 3.16463L254.514 4.81315C254.196 4.23716 253.825 3.8002 253.394 3.49566C252.963 3.19111 252.493 3.03884 251.969 3.03884C251.638 3.03884 251.333 3.10505 251.068 3.23084C250.796 3.35663 250.578 3.542 250.405 3.78034C250.246 4.01868 250.167 4.29013 250.167 4.59467C250.167 4.91246 250.26 5.21038 250.452 5.48183C250.644 5.74003 250.969 5.99161 251.426 6.24981C251.903 6.50801 252.526 6.78608 253.301 7.084C254.349 7.468 255.21 7.89833 255.893 8.37501C256.589 8.83845 257.112 9.38134 257.463 10.0037C257.828 10.626 258.007 11.3741 258.007 12.2547C258.007 13.261 257.762 14.1548 257.271 14.936C256.781 15.7172 256.092 16.3329 255.204 16.7765C254.335 17.2068 253.308 17.4253 252.135 17.4253V17.4187Z" fill="#1B365E"/>
<path d="M6.21639 16.9486C5.12951 16.9486 4.14868 16.7434 3.2805 16.3396C2.41233 15.9357 1.69658 15.3597 1.13989 14.6248C0.583201 13.8899 0.198818 13.0491 0 12.0958L1.0935 11.8177L1.32546 11.864C1.51102 12.632 1.83576 13.3007 2.30629 13.8833C2.7702 14.4593 3.34015 14.9161 4.0095 15.2405C4.69211 15.5517 5.42111 15.7106 6.19651 15.7106C7.05143 15.7106 7.80031 15.5782 8.45641 15.3134C9.10588 15.0353 9.62281 14.6381 9.99394 14.1415C10.3849 13.6384 10.5771 13.0558 10.5771 12.3805C10.5771 11.5065 10.312 10.8379 9.78849 10.3877C9.27819 9.9176 8.58233 9.56672 7.71415 9.335L4.52643 8.44122C3.30039 8.09695 2.36594 7.56731 1.72972 6.84566C1.0935 6.11078 0.775392 5.25673 0.775392 4.29013C0.775392 3.44932 0.994092 2.71443 1.42487 2.08548C1.86227 1.46315 2.45872 0.966604 3.22086 0.609094C3.98962 0.244963 4.88431 0.0662079 5.89165 0.0662079C6.899 0.0662079 7.75392 0.251584 8.54919 0.628956C9.35772 1.00633 10.0138 1.53597 10.5307 2.22451C11.041 2.91305 11.3857 3.71414 11.558 4.64102L10.4645 4.87274L10.206 4.82639C9.98731 3.74724 9.49026 2.89319 8.71487 2.27086C7.93948 1.62866 6.99841 1.31087 5.89828 1.31087C4.79815 1.31087 3.85045 1.58232 3.14796 2.13182C2.45209 2.66147 2.10085 3.38973 2.10085 4.30999C2.10085 5.01177 2.34606 5.60762 2.8431 6.09092C3.34015 6.57422 4.06915 6.95159 5.03011 7.21641L8.21783 8.11019C9.38423 8.42136 10.2855 8.93776 10.9218 9.6594C11.5712 10.3612 11.9026 11.2351 11.9026 12.2878C11.9026 13.2279 11.664 14.0488 11.1802 14.7506C10.7163 15.4392 10.0536 15.9754 9.19866 16.366C8.34375 16.7566 7.34965 16.9553 6.21639 16.9553V16.9486Z" fill="#1B365E"/>
<path d="M25.0575 5.05811C25.0575 3.97896 24.7394 3.12491 24.1032 2.50257C23.4802 1.88024 22.6054 1.56246 21.4722 1.56246H16.7204V0.297928H21.4722C22.9965 0.297928 24.196 0.734885 25.084 1.6088C25.9721 2.46947 26.4095 3.61483 26.4095 5.05811H25.0575ZM15.998 16.7103V0.297928H17.2771V16.7103H15.998ZM16.7204 9.79843V8.55377H21.4722C22.6054 8.55377 23.4802 8.2426 24.1032 7.61365C24.7394 6.97145 25.0575 6.12402 25.0575 5.05811H26.4095C26.4095 6.48153 25.9655 7.62689 25.084 8.50743C24.196 9.3681 22.9965 9.79843 21.4722 9.79843H16.7204Z" fill="#1B365E"/>
<path d="M37.1922 16.9486C35.7474 16.9486 34.4551 16.5978 33.302 15.896C32.1687 15.1942 31.2674 14.2077 30.598 12.9432C29.9486 11.6588 29.6172 10.1824 29.6172 8.51405C29.6172 6.84567 29.9419 5.34942 30.598 4.08489C31.2674 2.82037 32.1687 1.8339 33.302 1.13212C34.4485 0.430342 35.7474 0.0794525 37.1922 0.0794525C38.6369 0.0794525 39.9226 0.430342 41.0559 1.13212C42.2024 1.8339 43.1037 2.82699 43.7598 4.11137C44.4093 5.3759 44.7406 6.84567 44.7406 8.52067C44.7406 10.1957 44.4159 11.6853 43.7598 12.9498C43.1103 14.2144 42.209 15.2008 41.0559 15.9026C39.9226 16.6044 38.6369 16.9553 37.1922 16.9553V16.9486ZM37.1922 15.704C38.3718 15.704 39.4256 15.4061 40.36 14.8102C41.3077 14.2144 42.05 13.3802 42.5934 12.301C43.1501 11.2219 43.4351 9.95733 43.4351 8.50081C43.4351 7.04428 43.1567 5.75989 42.5934 4.68074C42.05 3.60159 41.3077 2.77402 40.36 2.19803C39.4256 1.60218 38.3718 1.30426 37.1922 1.30426C36.0125 1.30426 34.9455 1.60218 34.0044 2.19803C33.07 2.77402 32.3277 3.60159 31.7711 4.68074C31.2276 5.75989 30.9559 7.03104 30.9559 8.50081C30.9559 9.97057 31.2276 11.2219 31.7711 12.301C32.3277 13.3802 33.0766 14.2144 34.0044 14.8102C34.9521 15.4061 36.0125 15.704 37.1922 15.704Z" fill="#1B365E"/>
<path d="M51.6463 16.7103V0.297928H52.9254V16.7103H51.6463ZM46.5234 1.54259V0.297928H58.0284V1.54259H46.5234Z" fill="#1B365E"/>
<path fill-rule="evenodd" clip-rule="evenodd" d="M81.6344 0.423721H94.783C94.783 17.0612 72.3098 0.423723 72.3098 17.0612H66.2393C66.2393 0.423723 81.6411 17.0612 81.6411 0.423721H81.6344Z" fill="url(#paint0_linear_1049_13120)"/>
</g>
<defs>
<linearGradient id="paint0_linear_1049_13120" x1="80.5078" y1="-0.973217" x2="80.5078" y2="17.2995" gradientUnits="userSpaceOnUse">
<stop stop-color="#FFBC41"/>
<stop offset="1" stop-color="#FF5758"/>
</linearGradient>
<clipPath id="clip0_1049_13120">
<rect width="258" height="17.4915" fill="white"/>
</clipPath>
</defs>
</svg>
