<svg width="38" height="38" viewBox="0 0 38 38" fill="none" xmlns="http://www.w3.org/2000/svg">
<rect x="0.5" y="0.5" width="37" height="37" rx="18.5" fill="white"/>
<rect x="0.5" y="0.5" width="37" height="37" rx="18.5" stroke="#FC7F16"/>
<path fill-rule="evenodd" clip-rule="evenodd" d="M19 12.875C17.6051 12.875 16.2294 12.9557 14.8771 13.1126C14.3823 13.1701 14 13.6007 14 14.1302V24.7387L18.7205 22.3785C18.8964 22.2905 19.1036 22.2905 19.2795 22.3785L24 24.7387V14.1302C24 13.6007 23.6177 13.1701 23.1229 13.1126C21.7706 12.9557 20.3949 12.875 19 12.875ZM14.733 11.871C16.133 11.7085 17.5569 11.625 19 11.625C20.4431 11.625 21.867 11.7085 23.267 11.871C24.4231 12.0051 25.25 12.9978 25.25 14.1302V25.75C25.25 25.9666 25.1378 26.1678 24.9536 26.2817C24.7693 26.3955 24.5392 26.4059 24.3455 26.309L19 23.6363L13.6545 26.309C13.4608 26.4059 13.2307 26.3955 13.0464 26.2817C12.8622 26.1678 12.75 25.9666 12.75 25.75V14.1302C12.75 12.9978 13.5769 12.0051 14.733 11.871Z" fill="#FC7F16"/>
</svg>
