<svg width="18" height="18" viewBox="0 0 18 18" fill="none" xmlns="http://www.w3.org/2000/svg">
<path fill-rule="evenodd" clip-rule="evenodd" d="M9 2.875C7.60513 2.875 6.22936 2.9557 4.87706 3.11264C4.38227 3.17006 4 3.60073 4 4.13024V14.7387L8.72049 12.3785C8.89645 12.2905 9.10355 12.2905 9.27951 12.3785L14 14.7387V4.13024C14 3.60073 13.6177 3.17006 13.1229 3.11264C11.7706 2.9557 10.3949 2.875 9 2.875ZM4.73296 1.87097C6.13299 1.7085 7.55687 1.625 9 1.625C10.4431 1.625 11.867 1.7085 13.267 1.87097C14.4231 2.00514 15.25 2.99777 15.25 4.13024V15.75C15.25 15.9666 15.1378 16.1678 14.9536 16.2817C14.7693 16.3955 14.5392 16.4059 14.3455 16.309L9 13.6363L3.65451 16.309C3.46077 16.4059 3.23068 16.3955 3.04642 16.2817C2.86216 16.1678 2.75 15.9666 2.75 15.75V4.13024C2.75 2.99777 3.57685 2.00514 4.73296 1.87097Z" fill="#FC7F16"/>
</svg>
