<svg width="21" height="16" viewBox="0 0 21 16" fill="none" xmlns="http://www.w3.org/2000/svg">
<path d="M10.4991 0C7.55326 0 5.1944 1.29375 3.47721 2.83359C1.77096 4.35938 0.629818 6.1875 0.0902344 7.44258C-0.0300781 7.72031 -0.0300781 8.02969 0.0902344 8.30742C0.629818 9.5625 1.77096 11.3906 3.47721 12.9164C5.1944 14.4563 7.55326 15.75 10.4991 15.75C13.4449 15.75 15.8038 14.4563 17.521 12.9164C19.2272 11.3871 20.3684 9.5625 20.9116 8.30742C21.0319 8.02969 21.0319 7.72031 20.9116 7.44258C20.3684 6.1875 19.2272 4.35938 17.521 2.83359C15.8038 1.29375 13.4449 0 10.4991 0ZM5.24909 7.875C5.24909 6.53234 5.80221 5.24467 6.78678 4.29527C7.77135 3.34587 9.1067 2.8125 10.4991 2.8125C11.8915 2.8125 13.2268 3.34587 14.2114 4.29527C15.196 5.24467 15.7491 6.53234 15.7491 7.875C15.7491 9.21766 15.196 10.5053 14.2114 11.4547C13.2268 12.4041 11.8915 12.9375 10.4991 12.9375C9.1067 12.9375 7.77135 12.4041 6.78678 11.4547C5.80221 10.5053 5.24909 9.21766 5.24909 7.875ZM10.4991 5.625C10.4991 6.86602 9.45274 7.875 8.16576 7.875C7.9069 7.875 7.65899 7.83281 7.42565 7.75898C7.22513 7.6957 6.9918 7.81523 6.99909 8.01914C7.01003 8.26172 7.04649 8.5043 7.11576 8.74687C7.61524 10.5469 9.53659 11.6156 11.4033 11.134C13.2699 10.6523 14.3783 8.79961 13.8788 6.99961C13.4741 5.54063 12.1361 4.55977 10.6486 4.5C10.4371 4.49297 10.3132 4.71445 10.3788 4.91133C10.4553 5.13633 10.4991 5.37539 10.4991 5.625Z" fill="#40BFDE"/>
</svg>
