<svg width="21" height="18" viewBox="0 0 21 18" fill="none" xmlns="http://www.w3.org/2000/svg">
<g clip-path="url(#clip0_421_11502)">
<path d="M10.5 1.125C7.55417 1.125 5.19532 2.41875 3.47813 3.95859C1.77188 5.48438 0.630733 7.3125 0.0911499 8.56758C-0.0291626 8.84531 -0.0291626 9.15469 0.0911499 9.43242C0.630733 10.6875 1.77188 12.5156 3.47813 14.0414C5.19532 15.5813 7.55417 16.875 10.5 16.875C13.4458 16.875 15.8047 15.5813 17.5219 14.0414C19.2281 12.5121 20.3693 10.6875 20.9125 9.43242C21.0328 9.15469 21.0328 8.84531 20.9125 8.56758C20.3693 7.3125 19.2281 5.48438 17.5219 3.95859C15.8047 2.41875 13.4458 1.125 10.5 1.125ZM5.25001 9C5.25001 7.65734 5.80313 6.36967 6.78769 5.42027C7.77226 4.47087 9.10762 3.9375 10.5 3.9375C11.8924 3.9375 13.2278 4.47087 14.2123 5.42027C15.1969 6.36967 15.75 7.65734 15.75 9C15.75 10.3427 15.1969 11.6303 14.2123 12.5797C13.2278 13.5291 11.8924 14.0625 10.5 14.0625C9.10762 14.0625 7.77226 13.5291 6.78769 12.5797C5.80313 11.6303 5.25001 10.3427 5.25001 9ZM10.5 6.75C10.5 7.99102 9.45365 9 8.16667 9C7.90782 9 7.6599 8.95781 7.42657 8.88398C7.22605 8.8207 6.99271 8.94023 7.00001 9.14414C7.01094 9.38672 7.0474 9.6293 7.11667 9.87187C7.61615 11.6719 9.53751 12.7406 11.4042 12.259C13.2708 11.7773 14.3792 9.92461 13.8797 8.12461C13.475 6.66563 12.137 5.68477 10.6495 5.625C10.438 5.61797 10.3141 5.83945 10.3797 6.03633C10.4563 6.26133 10.5 6.50039 10.5 6.75Z" fill="#1B365E"/>
</g>
<defs>
<clipPath id="clip0_421_11502">
<rect width="21" height="18" fill="white"/>
</clipPath>
</defs>
</svg>
