<svg width="215" height="14" viewBox="0 0 215 14" fill="none" xmlns="http://www.w3.org/2000/svg">
<g clip-path="url(#clip0_336_5433)">
<path d="M86.1658 13.6715V0.323242H95.455V2.77669H88.9989V5.59046H94.6045V8.04391H88.9989V13.6715H86.1658Z" fill="#1B365E"/>
<path d="M104.043 14C102.723 14 101.563 13.7086 100.558 13.1204C99.5527 12.5322 98.7685 11.7161 98.1997 10.6669C97.6474 9.61771 97.3657 8.39894 97.3657 7.0106C97.3657 5.62226 97.6419 4.38229 98.1997 3.33308C98.7685 2.28388 99.5527 1.46783 100.558 0.879637C101.563 0.291446 102.723 0 104.043 0C105.363 0 106.545 0.291446 107.55 0.879637C108.555 1.45193 109.333 2.26268 109.886 3.31188C110.455 4.36109 110.736 5.59046 110.736 7.0053C110.736 8.42014 110.455 9.63361 109.886 10.6828C109.317 11.732 108.533 12.5481 107.528 13.1363C106.522 13.7086 105.363 14 104.043 14ZM104.043 11.3717C104.832 11.3717 105.517 11.1915 106.081 10.8365C106.649 10.4815 107.091 9.97275 107.406 9.32627C107.721 8.66389 107.881 7.89023 107.881 7.0106C107.881 6.13096 107.721 5.34671 107.406 4.69493C107.091 4.03255 106.649 3.51855 106.081 3.16351C105.512 2.80848 104.827 2.62831 104.021 2.62831C103.214 2.62831 102.579 2.80848 101.999 3.16351C101.419 3.50795 100.972 4.00606 100.652 4.65783C100.348 5.30961 100.199 6.09387 100.199 7.0106C100.199 7.92733 100.348 8.69568 100.652 9.34746C100.967 9.99924 101.419 10.5026 101.999 10.8577C102.579 11.2021 103.258 11.377 104.037 11.377L104.043 11.3717Z" fill="#1B365E"/>
<path d="M113.492 13.6715V0.323242H118.203C119.341 0.323242 120.252 0.482213 120.937 0.800154C121.638 1.11809 122.146 1.57381 122.461 2.162C122.792 2.75019 122.958 3.43906 122.958 4.22862C122.958 5.48978 122.583 6.4648 121.832 7.13778C121.091 7.81605 120.042 8.19228 118.684 8.26647H116.325V13.6662H113.492V13.6715ZM120.915 13.6715L117.491 7.96442L120.401 7.64118L124.201 13.6715H120.915ZM116.32 5.82362H117.905C118.286 5.82362 118.645 5.78653 118.976 5.70704C119.319 5.63286 119.589 5.48448 119.788 5.26722C119.998 5.03937 120.103 4.70553 120.103 4.27101C120.103 3.83649 119.998 3.49735 119.788 3.29599C119.589 3.07873 119.319 2.94096 118.976 2.87737C118.645 2.81378 118.291 2.78199 117.905 2.78199H116.32V5.82892V5.82362Z" fill="#1B365E"/>
<path d="M126.465 13.6715V0.323242H130.602L134.009 9.7237H133.496L136.903 0.323242H141.04V13.6715H138.206V3.54504L138.466 3.58214L135.141 12.4845H132.391L129.044 3.58214L129.304 3.54504V13.6768H126.471L126.465 13.6715Z" fill="#1B365E"/>
<path d="M143.182 13.6715L148.827 0.323242H150.925L156.569 13.6715H153.482L149.898 4.38229L146.275 13.6715H143.188H143.182ZM147.065 11.2392L147.954 8.78577H151.814L152.726 11.2392H147.065Z" fill="#1B365E"/>
<path d="M159.955 13.6715V2.77669H155.796V0.323242H166.963V2.77669H162.827V13.6715H159.955Z" fill="#1B365E"/>
<path d="M169.2 13.6715V0.323242H172.033V13.6715H169.2Z" fill="#1B365E"/>
<path d="M181.449 14C180.13 14 178.97 13.7086 177.965 13.1204C176.959 12.5322 176.175 11.7161 175.606 10.6669C175.054 9.61771 174.772 8.39894 174.772 7.0106C174.772 5.62226 175.049 4.38229 175.606 3.33308C176.175 2.28388 176.959 1.46783 177.965 0.879637C178.97 0.291446 180.13 0 181.449 0C182.769 0 183.951 0.291446 184.956 0.879637C185.962 1.45193 186.74 2.26268 187.293 3.31188C187.861 4.36109 188.143 5.59046 188.143 7.0053C188.143 8.42014 187.861 9.63361 187.293 10.6828C186.724 11.732 185.939 12.5481 184.934 13.1363C183.929 13.7086 182.769 14 181.449 14ZM181.449 11.3717C182.239 11.3717 182.924 11.1915 183.487 10.8365C184.056 10.4815 184.498 9.97275 184.813 9.32627C185.128 8.66389 185.288 7.89023 185.288 7.0106C185.288 6.13096 185.128 5.34671 184.813 4.69493C184.498 4.03255 184.056 3.51855 183.487 3.16351C182.918 2.80848 182.234 2.62831 181.427 2.62831C180.621 2.62831 179.986 2.80848 179.406 3.16351C178.826 3.50795 178.379 4.00606 178.058 4.65783C177.755 5.30961 177.606 6.09387 177.606 7.0106C177.606 7.92733 177.76 8.69568 178.058 9.34746C178.373 9.99924 178.826 10.5026 179.406 10.8577C179.986 11.2021 180.665 11.377 181.444 11.377L181.449 11.3717Z" fill="#1B365E"/>
<path d="M190.893 13.6715V0.323242H193.804L200.022 10.0681H199.288V0.323242H202.138V13.6715H199.205L193.008 3.90538H193.721V13.6715H190.888H190.893Z" fill="#1B365E"/>
<path d="M210.112 13.9418C208.61 13.9418 207.373 13.5656 206.412 12.8131C205.462 12.0606 204.882 11.0591 204.667 9.80855L207.439 9.14087C207.583 9.93043 207.903 10.5239 208.389 10.9213C208.875 11.3188 209.483 11.5148 210.212 11.5148C210.582 11.5148 210.919 11.4565 211.222 11.34C211.526 11.2128 211.764 11.0326 211.935 10.8048C212.106 10.5769 212.194 10.3014 212.194 9.98342C212.194 9.69197 212.101 9.43232 211.918 9.21506C211.747 8.9872 211.471 8.77524 211.084 8.58448C210.703 8.39371 210.212 8.18705 209.621 7.96979C208.721 7.62536 207.975 7.25972 207.384 6.87819C206.788 6.48077 206.346 6.03035 206.059 5.51635C205.783 5.00764 205.645 4.41415 205.645 3.73588C205.645 3.00991 205.827 2.36343 206.197 1.80174C206.567 1.24004 207.08 0.800223 207.743 0.482283C208.417 0.164342 209.196 0.00537109 210.079 0.00537109C211.029 0.00537109 211.869 0.217332 212.592 0.635954C213.316 1.05458 213.907 1.69046 214.354 2.533L212.095 3.85246C211.83 3.39144 211.521 3.04171 211.162 2.79795C210.803 2.5542 210.411 2.43232 209.974 2.43232C209.698 2.43232 209.444 2.48531 209.223 2.58599C208.997 2.68667 208.815 2.83505 208.671 3.02581C208.538 3.21657 208.472 3.43383 208.472 3.67759C208.472 3.93194 208.549 4.1704 208.71 4.38766C208.87 4.59432 209.14 4.79568 209.521 5.00234C209.919 5.209 210.438 5.43156 211.084 5.67002C211.957 5.97736 212.675 6.3218 213.244 6.70333C213.824 7.07426 214.26 7.50878 214.553 8.00688C214.856 8.50499 215.006 9.10378 215.006 9.80855C215.006 10.614 214.801 11.3294 214.393 11.9547C213.984 12.5799 213.409 13.0727 212.669 13.4278C211.946 13.7722 211.09 13.9471 210.112 13.9471V13.9418Z" fill="#1B365E"/>
<path d="M5.18032 13.5655C4.2746 13.5655 3.45723 13.4012 2.73375 13.078C2.01027 12.7547 1.41382 12.2937 0.94991 11.7055C0.486001 11.1173 0.165682 10.4443 0 9.68129L0.911251 9.45873L1.10455 9.49582C1.25918 10.1105 1.5298 10.6457 1.92191 11.112C2.3085 11.573 2.78346 11.9387 3.34125 12.1983C3.91009 12.4474 4.5176 12.5746 5.16376 12.5746C5.87619 12.5746 6.50026 12.4686 7.04701 12.2566C7.58823 12.0341 8.01901 11.7161 8.32828 11.3187C8.65412 10.916 8.81428 10.4496 8.81428 9.90915C8.81428 9.20968 8.59337 8.67448 8.15708 8.31414C7.73183 7.93791 7.15194 7.65707 6.42846 7.4716L3.77203 6.75623C2.75032 6.48069 1.97162 6.05676 1.44143 5.47917C0.911251 4.89098 0.64616 4.20741 0.64616 3.43375C0.64616 2.76078 0.82841 2.17259 1.18739 1.66918C1.55189 1.17107 2.04893 0.773645 2.68405 0.487498C3.32469 0.196052 4.07025 0.0529785 4.90971 0.0529785C5.74917 0.0529785 6.4616 0.201351 7.12432 0.503395C7.7981 0.805439 8.34485 1.22936 8.77562 1.78046C9.20087 2.33156 9.48806 2.97274 9.63165 3.7146L8.7204 3.90006L8.50501 3.86297C8.32276 2.99923 7.90855 2.31566 7.26239 1.81755C6.61623 1.30355 5.83201 1.04919 4.91523 1.04919C3.99846 1.04919 3.20871 1.26645 2.6233 1.70627C2.04341 2.13019 1.75071 2.71308 1.75071 3.44965C1.75071 4.01134 1.95505 4.48826 2.36925 4.87508C2.78346 5.26191 3.39096 5.56395 4.19175 5.77592L6.84819 6.49128C7.82019 6.74034 8.57128 7.15366 9.10146 7.73125C9.64269 8.29295 9.91883 8.99242 9.91883 9.83496C9.91883 10.5874 9.72001 11.2445 9.31685 11.8062C8.93026 12.3573 8.37799 12.7865 7.66555 13.0992C6.95312 13.4118 6.12471 13.5708 5.18032 13.5708V13.5655Z" fill="#1B365E"/>
<path d="M20.8814 4.04852C20.8814 3.18478 20.6163 2.50121 20.0861 2.0031C19.567 1.50499 18.838 1.25064 17.8936 1.25064H13.9338V0.238525H17.8936C19.1638 0.238525 20.1634 0.58826 20.9035 1.28773C21.6435 1.9766 22.008 2.89333 22.008 4.04852H20.8814ZM13.3318 13.3748V0.238525H14.3977V13.3748H13.3318ZM13.9338 7.84261V6.8464H17.8936C18.838 6.8464 19.567 6.59734 20.0861 6.09394C20.6163 5.57993 20.8814 4.90166 20.8814 4.04852H22.008C22.008 5.18781 21.638 6.10454 20.9035 6.80931C20.1634 7.49818 19.1638 7.84261 17.8936 7.84261H13.9338Z" fill="#1B365E"/>
<path d="M30.9936 13.5654C29.7897 13.5654 28.7127 13.2845 27.7518 12.7228C26.8074 12.1611 26.0563 11.3716 25.4985 10.3595C24.9573 9.33146 24.6812 8.14978 24.6812 6.81442C24.6812 5.47907 24.9518 4.28149 25.4985 3.26938C26.0563 2.25727 26.8074 1.46772 27.7518 0.90602C28.7072 0.344324 29.7897 0.0634766 30.9936 0.0634766C32.1976 0.0634766 33.269 0.344324 34.2134 0.90602C35.1688 1.46772 35.9199 2.26257 36.4667 3.29058C37.0079 4.30269 37.284 5.47907 37.284 6.81972C37.284 8.16037 37.0134 9.35265 36.4667 10.3648C35.9254 11.3769 35.1743 12.1664 34.2134 12.7281C33.269 13.2898 32.1976 13.5707 30.9936 13.5707V13.5654ZM30.9936 12.5692C31.9767 12.5692 32.8548 12.3307 33.6335 11.8538C34.4233 11.3769 35.0418 10.7092 35.4947 9.84546C35.9586 8.98172 36.1961 7.96961 36.1961 6.80383C36.1961 5.63804 35.9641 4.61003 35.4947 3.74629C35.0418 2.88255 34.4233 2.22018 33.6335 1.75916C32.8548 1.28225 31.9767 1.04379 30.9936 1.04379C30.0106 1.04379 29.1214 1.28225 28.3372 1.75916C27.5585 2.22018 26.94 2.88255 26.476 3.74629C26.0232 4.61003 25.7967 5.62744 25.7967 6.80383C25.7967 7.98021 26.0232 8.98172 26.476 9.84546C26.94 10.7092 27.564 11.3769 28.3372 11.8538C29.127 12.3307 30.0106 12.5692 30.9936 12.5692Z" fill="#1B365E"/>
<path d="M43.0386 13.3748V0.238525H44.1045V13.3748H43.0386ZM38.7695 1.23474V0.238525H48.357V1.23474H38.7695Z" fill="#1B365E"/>
<path fill-rule="evenodd" clip-rule="evenodd" d="M68.029 0.339111H78.9861C78.9861 13.6555 60.2585 0.339112 60.2585 13.6555H55.1997C55.1997 0.339112 68.0345 13.6555 68.0345 0.339111H68.029Z" fill="url(#paint0_linear_336_5433)"/>
</g>
<defs>
<linearGradient id="paint0_linear_336_5433" x1="67.0902" y1="-0.778981" x2="67.0902" y2="13.8463" gradientUnits="userSpaceOnUse">
<stop stop-color="#FFBC41"/>
<stop offset="1" stop-color="#FF5758"/>
</linearGradient>
<clipPath id="clip0_336_5433">
<rect width="215" height="14" fill="white"/>
</clipPath>
</defs>
</svg>
